<svg width="105" height="155" viewBox="0 0 105 155" fill="none" xmlns="http://www.w3.org/2000/svg">
<g clip-path="url(#clip0_10_435)">
<path d="M50.1681 52.4853C51.7709 47.0982 53.269 41.7735 54.9421 36.5038C57.2978 29.0868 59.8074 21.7209 62.2011 14.3152C63.4958 10.3104 64.6176 6.24681 65.9751 2.26279C66.2564 1.2611 66.9656 0.433622 67.9143 0C69.2889 0.130655 70.6179 0.549128 71.8157 1.2308C72.0077 1.71555 72.0115 2.25332 71.8252 2.74185C69.7947 8.50581 67.5645 14.2073 65.6956 20.0224C63.5757 26.6214 61.7923 33.3264 59.815 39.9709C58.6343 43.9397 57.3624 47.8821 56.1551 51.7677C59.7903 52.6614 60.6991 49.9953 61.722 47.6549C65.2583 39.56 68.9106 31.5067 72.1389 23.2887C73.8538 18.9241 76.4262 15.0518 78.3483 10.8254C80.2914 6.55167 83.9323 5.32465 88.3223 5.83023C92.851 6.35285 97.3969 6.81866 101.869 7.66318C103.274 8.03053 104.43 9.02653 104.998 10.3577C104.916 11.7116 104.321 12.9859 103.335 13.9195C102.582 14.7716 101.563 15.3491 100.443 15.5631C99.1423 15.0745 97.8 14.7053 96.433 14.4629C93.4347 14.1637 90.4213 14.0312 87.4059 14.0672C85.7993 14.158 84.2517 14.7053 82.9475 15.6426C81.6413 16.5799 80.6317 17.8675 80.0348 19.3558C76.2342 26.6384 72.4336 33.9267 68.8402 41.3134C66.4542 46.2196 64.4712 51.317 62.2239 56.2913C61.2219 58.5125 60.0166 60.6427 58.8625 62.8922C63.9046 63.0646 67.6672 61.0915 71.4601 56.3652C69.9829 54.0096 67.19 55.0965 65.0891 54.4148L65.0929 53.7388C65.6005 53.3658 66.1937 53.1253 66.8173 53.0401C68.5322 53.3942 70.2034 53.9395 71.7986 54.6629C72.4355 54.9053 72.9469 55.3919 73.2207 56.013C73.4945 56.6341 73.5059 57.3404 73.2511 57.9709C73.0268 59.4289 73.0154 60.9097 73.2169 62.3715C73.331 66.7153 73.4545 71.0572 73.5895 75.401C73.6085 76.0259 73.6751 76.6507 73.7074 77.2775C74.0477 84.0053 72.0286 90.2994 70.1407 96.6239C68.2394 103.058 64.9503 109 60.5014 114.037C58.0164 116.622 55.3034 118.977 52.3945 121.077C49.9799 122.706 48.2289 125.143 47.4607 127.945C46.3181 132.425 46.1774 137.102 47.0482 141.643C47.9893 145.589 49.4247 146.574 53.3755 146.841C55.06 146.973 56.7141 147.369 58.275 148.013C59.2351 148.39 59.9785 149.174 60.2979 150.151C60.2124 151.183 59.6249 152.105 58.7256 152.622C56.8415 153.561 54.8148 154.18 52.7272 154.453C44.3522 155.184 35.9449 155.704 27.8969 152.449C27.1307 152.038 26.6117 151.283 26.5014 150.423C26.49 149.42 26.9349 148.463 27.7106 147.822C29.6822 147.085 31.7127 146.515 33.7813 146.123C34.4087 146.045 35.0437 146.034 35.6749 146.085C38.9945 146.009 40.3615 144.959 40.39 141.734C40.4261 137.829 40.0212 133.921 39.8596 130.013C39.7626 127.968 39.0972 125.989 37.9374 124.298C36.7777 122.607 35.1711 121.272 33.2927 120.437C29.7164 118.167 26.279 115.684 23.0031 113.001C20.5106 110.877 18.7158 108.059 17.8489 104.908C17.3736 103.605 16.5731 102.418 16.1301 101.11C14.4894 96.7981 13.0977 92.3956 11.9645 87.9268C11.4626 84.2761 11.244 80.5931 11.3124 76.9102C6.86729 77.2415 5.37481 73.8502 4.15992 70.4626C3.76446 68.8228 3.65799 67.1262 3.84622 65.4485C3.88614 63.3467 4.26639 61.2449 4.20745 59.1506C4.05725 53.8543 9.69064 46.3426 15.805 44.8108C17.345 44.3109 18.9136 43.9057 20.503 43.597C22.2407 43.4228 23.9956 43.7144 25.5812 44.4434C27.1688 45.1724 28.5301 46.3105 29.5263 47.7401C30.4522 48.8554 31.42 49.9347 32.7052 51.4192C33.0094 49.1262 32.1177 46.8369 30.3419 45.3485C27.241 42.4382 22.9632 41.1221 18.7539 41.783C14.0103 42.5556 9.72486 45.0531 6.7228 48.791C2.9051 53.7881 1.10462 60.0292 1.67309 66.2836C2.1465 69.6957 3.40703 72.9508 5.35961 75.793C6.4167 77.4669 9.0157 78.175 10.9968 79.8679C10.4264 79.9891 9.83893 80.0269 9.25715 79.9777C4.57059 78.8548 2.61231 75.3272 1.16926 71.1386C-1.40882 63.6516 0.579878 56.8461 4.02493 50.268C7.13727 44.326 12.6661 41.4251 18.8641 40.0561C24.3207 38.8518 34.4505 42.9437 34.557 51.476C34.4486 52.0043 34.635 52.5478 35.0456 52.8981C35.4544 53.2503 36.0229 53.3526 36.5286 53.1689C40.2189 52.6822 43.9415 52.4133 47.6547 52.118C48.5007 52.1596 49.3392 52.2827 50.1605 52.4853H50.1681ZM66.5797 42.031C65.6899 43.3471 64.8818 44.7142 64.1575 46.1249C63.146 48.382 62.3494 50.7357 61.4615 53.0477C60.8778 53.701 60.3531 54.4035 59.893 55.1457C58.5146 57.8308 57.2217 60.5594 55.8966 63.2709L56.5867 63.6364C57.3871 62.3923 58.121 61.1047 58.7826 59.7811C59.758 57.5695 60.5603 55.2821 61.4368 53.0288C63.1403 49.3534 64.8457 45.678 66.5492 42.0026L69.9373 33.9096C70.251 33.654 70.5304 33.3605 70.7719 33.0367C73.2929 28.5774 75.795 24.1086 78.278 19.6285C78.5841 18.9525 78.8351 18.2538 79.0252 17.538L77.0517 16.3527C76.2094 18.0853 75.3881 19.7156 74.6181 21.3706C73.85 23.0236 73.0344 24.6672 72.4146 26.379C71.5153 28.8671 70.7738 31.4101 69.9658 33.9305C68.8383 36.6306 67.7109 39.329 66.5816 42.0291L66.5797 42.031ZM72.31 73.4222C70.6635 73.5699 69.1254 73.7574 67.5816 73.835C65.9789 73.9165 64.3666 73.8445 62.7639 73.9297C60.6193 74.0433 58.4746 74.4258 56.3415 74.3596C53.1702 74.2611 49.9913 73.534 46.8504 73.6949C43.491 73.8691 40.2817 75.1814 36.751 74.0187C34.4543 73.4166 32.0664 73.2215 29.7012 73.445C25.066 73.6457 20.446 74.1248 15.8183 74.4902C15.1244 74.5451 14.4304 74.6076 13.1604 74.7155C13.4703 74.2043 13.8696 73.7555 14.3411 73.3863C15.8298 72.9583 17.3527 72.661 18.8927 72.4982C25.8284 71.684 32.8497 71.9377 39.7075 73.2537C40.8235 73.5472 42.0137 73.32 42.9415 72.6345C43.8959 70.5289 44.683 68.3513 45.3009 66.1245L29.6043 64.6267L29.6214 63.9962C29.9294 63.8655 30.2545 63.786 30.5872 63.7595C34.0171 64.0719 37.4355 64.5453 40.871 64.6968C42.5384 64.7706 45.2325 64.8066 45.7287 63.9091C47.2763 60.6919 48.5825 57.3631 49.632 53.9528L49.0388 53.1424C43.3122 53.7843 37.5838 54.4035 31.8591 55.0719C26.8037 55.6627 21.6704 56.0414 17.6055 59.7338C21.1342 61.6444 25.3816 61.989 28.9407 64.0662C25.836 63.5588 22.7826 62.79 19.8091 61.7656C17.037 60.8661 14.9495 61.6652 14.6966 63.7708C14.3468 66.6945 13.9551 69.6124 13.5407 72.5285C12.3638 78.9703 12.7117 85.5977 14.5616 91.8805C16.1435 96.6428 18.0618 101.299 19.9345 105.961C20.9954 108.752 22.9062 111.142 25.4006 112.797C29.1328 115.256 32.7584 117.877 36.4202 120.445C37.4089 120.91 38.2796 121.596 38.9641 122.448C40.1105 124.605 40.93 126.919 41.3958 129.316C41.8369 133.141 42.0783 136.985 42.1202 140.836C42.2856 142.311 41.8996 143.796 41.0345 145.006C40.1695 146.214 38.8861 147.062 37.4298 147.386C35.7073 147.833 34.0113 148.371 32.3459 148.999C32.0987 149.107 31.8325 149.166 31.5625 149.172C30.5948 149.073 29.6347 148.925 28.6708 148.795C29.6423 149.887 30.8363 150.242 31.5036 151.037C32.9524 152.599 35.0076 153.464 37.1427 153.409C41.1087 153.627 45.0842 153.625 49.0502 153.4C51.7176 153.18 54.3623 152.747 56.9594 152.101C57.6343 151.804 58.1286 151.202 58.2864 150.482C58.0697 149.851 57.5545 149.367 56.908 149.189C55.0391 148.891 53.1169 148.925 51.2423 148.651C50.2385 148.526 49.2783 148.164 48.4418 147.598C45.6831 145.561 45.2154 142.378 44.9549 139.333C44.7096 136.445 44.7914 133.539 45.2002 130.67C45.5367 126.144 47.995 122.041 51.8355 119.598C54.9726 117.443 57.8016 114.878 60.2447 111.965C64.127 107.383 67.0207 102.055 68.7452 96.3114C71.6389 89.044 72.8576 81.2218 72.3138 73.4222H72.31ZM47.6033 64.3597C50.959 64.5567 50.999 64.5699 51.9287 61.4247C53.9725 54.5038 55.9631 47.5678 57.9898 40.6412C59.7219 34.7201 61.3645 28.7705 63.2525 22.8987C65.1005 17.148 67.1938 11.4768 69.2091 5.781C69.7985 4.11468 69.5627 3.07701 67.2964 3.06565C60.7409 23.4705 54.1931 43.8564 47.6052 64.3616L47.6033 64.3597ZM71.6503 59.0237C70.8137 60.0027 69.8308 60.851 68.7395 61.5365C65.9389 62.5817 63.03 63.3372 60.1725 64.2404C59.353 64.3275 58.5811 64.6608 57.9575 65.1986C56.792 67.753 55.8871 70.4248 54.7178 73.5056L72.542 71.9245C72.2435 67.5863 71.9621 63.5209 71.6503 59.0218V59.0237ZM86.7594 11.7248C89.8585 12.0695 92.8301 12.3857 95.7961 12.7303C98.506 13.0459 100.218 12.0063 100.933 9.61164C100.928 9.34465 100.89 9.08145 100.819 8.82392C97.8057 8.49066 94.7048 8.02106 91.5867 7.83739C87.5009 7.59691 86.7556 8.28426 86.7594 11.7229V11.7248ZM44.9511 72.4565C48.3543 72.7197 48.3905 72.7084 49.265 69.7298C49.6719 68.3438 50.0198 66.9387 50.3963 65.5318C46.9075 65.0187 46.647 65.352 44.9492 72.4565H44.9511ZM52.8774 63.7538L53.4782 64.0094C55.5695 60.7734 57.2864 57.312 58.5963 53.6915H55.7159C54.7482 57.1188 53.8109 60.4363 52.8755 63.7538H52.8774ZM30.3686 51.3227L17.0979 57.3839L17.2481 57.6168L31.5511 53.4851L30.3705 51.3208L30.3686 51.3227ZM13.4171 58.3894L13.4703 57.6092C12.1965 57.0506 10.8808 56.5943 9.53474 56.2459C8.81417 56.2402 8.14112 56.6019 7.75137 57.2059C7.50801 58.0542 7.50421 58.9537 7.74376 59.8058C8.34456 59.9913 8.98528 60.0046 9.59177 59.8436C10.896 59.4555 12.1451 58.8855 13.4171 58.3894ZM18.4592 53.7521L19.2045 54.1403C20.6323 52.2202 22.0886 50.321 23.4594 48.3612C23.5659 47.937 23.5659 47.492 23.4575 47.066C23.0165 47.0186 22.5716 47.0584 22.1457 47.1815C19.9288 48.6566 18.558 51.1011 18.4592 53.7521ZM13.0977 61.633L12.4284 60.9835C10.1317 61.6804 8.20577 63.2558 7.07643 65.3652C6.96235 65.795 6.94144 66.2438 7.01179 66.6812C7.45097 66.7948 7.91297 66.791 8.35026 66.668C9.98153 65.0376 11.5253 63.3221 13.0958 61.633H13.0977ZM56.6152 64.3806C56.0468 64.4828 55.5049 64.6968 55.0239 65.0111C53.9896 67.2266 52.9953 69.4647 52.115 71.7427C52.3717 72.3126 52.7481 72.822 53.2196 73.2348C54.4155 70.118 55.4117 67.5238 56.6171 64.3825L56.6152 64.3806ZM10.1679 50.5823C10.8979 53.2257 12.8581 55.3578 15.4381 56.316C14.0293 53.8979 13.5597 51.1314 10.1679 50.5823ZM11.8771 66.0071C9.06513 69.4609 8.5632 71.4605 10.088 73.373C12.2972 71.2182 10.9759 68.3362 11.8771 66.0071ZM11.0957 48.7891C12.3828 49.8306 13.495 50.7338 14.8126 51.7979L15.2746 46.426L11.0957 48.7872V48.7891ZM21.7673 53.1386C26.7714 52.5326 28.0015 51.6162 27.1212 49.0069L21.7673 53.1386ZM17.2975 46.5017L16.4686 46.4847V53.3715C16.3165 51.0462 19.3794 48.9747 17.2975 46.4998V46.5017ZM5.11244 68.3759C5.70373 69.7999 6.22657 71.061 6.74941 72.3221L7.38633 72.2028L8.23809 68.3759H5.11054H5.11244ZM81.6052 14.8113C83.5406 12.8061 82.071 11.1056 81.666 9.10417L80.3256 10.6266L81.6052 14.8094V14.8113ZM85.7898 7.8052C83.3981 8.45279 83.0843 10.4656 84.997 12.647C85.2651 11.0034 85.5084 9.51886 85.7898 7.8052ZM8.90733 52.3584L8.21147 52.2922L5.95279 56.7287L9.3199 53.4756L8.90733 52.3584ZM53.1093 65.5583L52.2709 65.2061C51.7347 66.6585 51.1967 68.1108 50.6586 69.5651L51.1777 69.7791L53.1093 65.5583Z" fill="white"/>
<path d="M47.803 82.9922C48.9913 83.8556 49.9856 84.9577 50.7195 86.2264C50.364 87.3322 49.535 88.2278 48.457 88.6709C47.5102 89.1008 45.3104 86.6865 45.6527 85.5901C46.2249 84.6169 46.9512 83.7401 47.803 82.9922Z" fill="white"/>
<path d="M51.2309 92.8046C51.8944 93.4503 52.4458 94.2001 52.8641 95.0257C52.2557 95.8172 51.5484 96.5311 50.7594 97.1446C50.1814 96.6882 49.7365 96.0842 49.4742 95.3968C49.8905 94.4311 50.4875 93.5525 51.2309 92.8065V92.8046Z" fill="white"/>
<path d="M52.4781 103.636C53.1436 104.253 53.6626 105.012 53.9953 105.855C53.5923 106.603 53.0466 107.266 52.3907 107.807C51.8868 107.453 51.4876 106.97 51.2366 106.408C51.5123 105.429 51.9306 104.495 52.4762 103.634L52.4781 103.636Z" fill="white"/>
</g>
<defs>
<clipPath id="clip0_10_435">
<rect width="105" height="155" fill="white"/>
</clipPath>
</defs>
</svg>
