<svg width="137" height="57" viewBox="0 0 137 57" fill="none" xmlns="http://www.w3.org/2000/svg">
<path d="M145.974 26.776C143.326 12.3113 129.533 0.819116 113.894 0.0449703C100.344 -0.625956 85.9577 6.24372 75.4133 18.4222C71.5051 22.9346 67.6577 26.8597 63.6847 25.4509C62.1598 24.9083 60.9256 23.5999 59.6197 22.2148C59.3696 21.9512 59.1222 21.6862 58.8708 21.4281C50.7367 13.0506 38.2429 9.3417 27.0375 11.9808C15.052 14.804 4.9862 23.4507 1.3957 34.0112C1.37947 34.06 1.3646 34.1088 1.35379 34.1576L0.0384426 39.8654C-0.0994457 40.4666 0.141183 41.0914 0.638662 41.4318C1.1402 41.7735 1.78908 41.7568 2.27034 41.3913C13.3082 33.0236 27.8459 29.9814 41.171 33.2468C41.19 33.2523 41.2102 33.2565 41.2292 33.2621C42.4877 33.5718 43.7463 33.9749 44.4155 34.816C46.0012 36.8092 43.9018 40.2741 41.8591 42.8308C40.1477 44.9733 38.4525 48.3043 38.8269 51.2265C39.0148 52.6981 39.7219 53.9214 40.8709 54.7625C41.0237 54.874 41.1927 54.9521 41.3657 54.9954C41.8483 55.114 42.3728 54.9675 42.7324 54.5755C48.4034 48.388 57.8366 45.9414 65.6678 48.6334C68.1769 49.4955 70.4939 50.7955 72.9448 52.1736C74.3913 52.9868 75.8891 53.8265 77.4262 54.5658C82.747 57.1253 87.4298 57.6693 91.3461 56.1838C94.0336 55.1656 96.3669 52.7915 97.4335 49.9837C98.3176 47.657 98.2568 45.2635 97.2591 43.2465C95.6585 40.0049 92.3222 38.5709 89.3819 37.3058C88.8844 37.091 88.391 36.8804 87.9111 36.6614C85.7346 35.6696 82.2171 33.2105 82.8538 30.2743C83.0431 29.3984 83.6041 28.5754 84.1841 27.8152C90.3323 19.7376 101.443 15.327 113.178 16.3062C122.587 17.0901 132.326 20.9009 143.819 28.3006C144.299 28.6103 144.913 28.5963 145.378 28.2671C145.846 27.9338 146.08 27.3507 145.976 26.776H145.974Z" fill="#19BBC3"/>
</svg>
