<svg width="120" height="57" viewBox="0 0 120 57" fill="none" xmlns="http://www.w3.org/2000/svg">
<path d="M-25.9742 26.776C-23.326 12.3113 -9.53307 0.819116 6.10644 0.0449703C19.656 -0.625956 34.0423 6.24372 44.5867 18.4222C48.4949 22.9346 52.3423 26.8597 56.3153 25.4509C57.8402 24.9083 59.0744 23.5999 60.3803 22.2148C60.6304 21.9512 60.8778 21.6862 61.1292 21.4281C69.2633 13.0506 81.7571 9.3417 92.9625 11.9808C104.948 14.804 115.014 23.4507 118.604 34.0112C118.621 34.06 118.635 34.1088 118.646 34.1576L119.962 39.8654C120.099 40.4666 119.859 41.0914 119.361 41.4318C118.86 41.7735 118.211 41.7568 117.73 41.3913C106.692 33.0236 92.1541 29.9814 78.829 33.2468C78.81 33.2523 78.7898 33.2565 78.7708 33.2621C77.5123 33.5718 76.2537 33.9749 75.5845 34.816C73.9988 36.8092 76.0982 40.2741 78.1409 42.8308C79.8523 44.9733 81.5475 48.3043 81.1731 51.2265C80.9852 52.6981 80.2781 53.9214 79.1291 54.7625C78.9763 54.874 78.8073 54.9521 78.6343 54.9954C78.1517 55.114 77.6272 54.9675 77.2676 54.5755C71.5966 48.388 62.1634 45.9414 54.3322 48.6334C51.8231 49.4955 49.5061 50.7955 47.0552 52.1736C45.6087 52.9868 44.1109 53.8265 42.5738 54.5658C37.253 57.1253 32.5702 57.6693 28.6539 56.1838C25.9664 55.1656 23.6331 52.7915 22.5665 49.9837C21.6824 47.657 21.7432 45.2635 22.7409 43.2465C24.3415 40.0049 27.6778 38.5709 30.6181 37.3058C31.1156 37.091 31.609 36.8804 32.0889 36.6614C34.2654 35.6696 37.7829 33.2105 37.1462 30.2743C36.9569 29.3984 36.3959 28.5754 35.8159 27.8152C29.6677 19.7376 18.5569 15.327 6.82156 16.3062C-2.58729 17.0901 -12.326 20.9009 -23.8194 28.3006C-24.2993 28.6103 -24.913 28.5963 -25.378 28.2671C-25.8458 27.9338 -26.0797 27.3507 -25.9756 26.776H-25.9742Z" fill="#19BBC3"/>
</svg>
