<svg width="136" height="53" viewBox="0 0 136 53" fill="none" xmlns="http://www.w3.org/2000/svg">
<g clip-path="url(#clip0_4_74)">
<path d="M135.976 24.8975C133.509 11.4474 120.661 0.761264 106.092 0.0414192C93.4709 -0.582446 80.0698 5.80536 70.2476 17.1296C66.6071 21.3255 63.0233 24.9753 59.3223 23.6653C57.9018 23.1607 56.7521 21.9441 55.5357 20.6562C55.3027 20.4111 55.0723 20.1646 54.8381 19.9247C47.2611 12.1348 35.623 8.68604 25.185 11.14C14.0204 13.7652 4.644 21.8054 1.2994 31.6251C1.28429 31.6705 1.27044 31.7159 1.26037 31.7613L0.0351078 37.0687C-0.0933367 37.6277 0.130811 38.2087 0.594219 38.5252C1.0614 38.843 1.66585 38.8274 2.11415 38.4876C12.396 30.7068 25.9381 27.878 38.3506 30.9143C38.3682 30.9195 38.3871 30.9234 38.4047 30.9286C39.5771 31.2165 40.7495 31.5914 41.3728 32.3735C42.8499 34.2269 40.8943 37.4487 38.9916 39.8261C37.3973 41.8183 35.8182 44.9156 36.167 47.6329C36.3421 49.0012 37.0007 50.1387 38.071 50.9208C38.2133 51.0246 38.3707 51.0972 38.5319 51.1374C38.9815 51.2476 39.4701 51.1115 39.805 50.747C45.0876 44.9934 53.8747 42.7185 61.1696 45.2217C63.5068 46.0233 65.6652 47.2321 67.9482 48.5135C69.2956 49.2697 70.6909 50.0505 72.1227 50.7379C77.0791 53.1179 81.4412 53.6238 85.0893 52.2425C87.5927 51.2956 89.7662 49.0881 90.7597 46.4772C91.5833 44.3138 91.5266 42.0881 90.5973 40.2126C89.1063 37.1984 85.9984 35.865 83.2596 34.6886C82.7962 34.4889 82.3365 34.293 81.8895 34.0894C79.8621 33.1672 76.5855 30.8806 77.1786 28.1504C77.3549 27.3358 77.8775 26.5706 78.4177 25.8637C84.1448 18.3527 94.4947 14.2515 105.426 15.162C114.191 15.891 123.262 19.4344 133.969 26.3151C134.416 26.603 134.987 26.5901 135.421 26.284C135.856 25.974 136.074 25.4318 135.977 24.8975H135.976ZM105.64 12.4305C93.831 11.4461 82.601 15.9467 76.3286 24.1711C75.6322 25.0855 74.8792 26.2022 74.5858 27.5511C73.6804 31.7224 77.3788 35.0285 80.8178 36.5914C81.2813 36.8028 81.7598 37.0064 82.2396 37.2139C84.7833 38.3047 87.1847 39.3371 88.2324 41.4552C88.9741 42.9519 88.6719 44.4694 88.2865 45.4772C87.5612 47.3812 85.9846 48.9882 84.1738 49.6731C81.212 50.7937 77.5337 50.3164 73.2421 48.2567C71.8859 47.6056 70.5297 46.8456 69.2163 46.1089C66.9307 44.8274 64.5684 43.5019 62.0045 42.6238C54.0951 39.9117 45.0133 41.9999 38.921 47.7976C38.8618 47.638 38.8216 47.463 38.7951 47.2723C38.5722 45.5434 39.7597 43.1607 41.0366 41.5667C44.725 36.9571 45.5271 33.2801 43.4216 30.6368C42.3009 29.2308 40.6424 28.6679 39.018 28.2671C38.9978 28.2619 38.9802 28.258 38.9601 28.2528C26.9228 25.3086 13.8832 27.5667 3.40363 34.2853L3.82422 32.4655C6.89429 23.5421 15.5013 16.223 25.7731 13.8093C35.341 11.5602 46.0132 14.7211 52.958 21.8624C53.1821 22.0933 53.405 22.3294 53.6292 22.5667C55.0093 24.0272 56.4373 25.5369 58.4547 26.2541C64.1553 28.2801 69.0085 22.6666 72.2272 18.9545C81.5218 8.23986 94.1333 2.19187 105.964 2.77683C118.166 3.38253 129.032 11.5239 132.555 22.2347C122.672 16.2619 114.052 13.1322 105.639 12.4305H105.64Z" fill="white"/>
</g>
<defs>
<clipPath id="clip0_4_74">
<rect width="136" height="53" fill="white"/>
</clipPath>
</defs>
</svg>
