<svg width="54" height="21" viewBox="0 0 54 21" fill="none" xmlns="http://www.w3.org/2000/svg">
<path d="M53.9907 9.86518C53.0112 4.53591 47.9097 0.30179 42.1252 0.0165686C37.1137 -0.230623 31.7927 2.3004 27.8927 6.78736C26.4472 8.44987 25.0242 9.89602 23.5547 9.37697C22.9907 9.17706 22.5342 8.69501 22.0512 8.18469C21.9587 8.08756 21.8672 7.98992 21.7742 7.89484C18.7657 4.80829 14.1447 3.44179 10.0002 4.41412C5.56722 5.45427 1.84422 8.64002 0.516218 12.5308C0.510219 12.5488 0.504718 12.5668 0.500718 12.5848L0.0142185 14.6877C-0.0367815 14.9092 0.0522185 15.1395 0.236219 15.2649C0.421719 15.3908 0.661719 15.3846 0.839719 15.25C4.92222 12.167 10.2992 11.0462 15.2277 12.2492C15.2347 12.2513 15.2422 12.2528 15.2492 12.2549C15.7147 12.369 16.1802 12.5175 16.4277 12.8274C17.0142 13.5618 16.2377 14.8383 15.4822 15.7803C14.8492 16.5697 14.2222 17.7969 14.3607 18.8736C14.4302 19.4157 14.6917 19.8664 15.1167 20.1763C15.1732 20.2174 15.2357 20.2462 15.2997 20.2621C15.4782 20.3058 15.6722 20.2519 15.8052 20.1075C17.9027 17.8277 21.3917 16.9263 24.2882 17.9182C25.2162 18.2358 26.0732 18.7148 26.9797 19.2225C27.5147 19.5221 28.0687 19.8315 28.6372 20.1039C30.6052 21.0469 32.3372 21.2473 33.7857 20.7C34.7797 20.3248 35.6427 19.4502 36.0372 18.4157C36.3642 17.5585 36.3417 16.6766 35.9727 15.9335C35.3807 14.7391 34.1467 14.2108 33.0592 13.7447C32.8752 13.6656 32.6927 13.588 32.5152 13.5073C31.7102 13.1419 30.4092 12.2359 30.6447 11.1541C30.7147 10.8313 30.9222 10.5281 31.1367 10.248C33.4107 7.27198 37.5202 5.64699 41.8607 6.00776C45.3407 6.29658 48.9427 7.70059 53.1937 10.4269C53.3712 10.541 53.5982 10.5358 53.7702 10.4146C53.9432 10.2917 54.0297 10.0769 53.9912 9.86518H53.9907Z" fill="#8DE8EC"/>
</svg>
