<svg width="54" height="21" viewBox="0 0 54 21" fill="none" xmlns="http://www.w3.org/2000/svg">
<g clip-path="url(#clip0_4_76)">
<path d="M53.9903 9.86492C53.0108 4.53565 47.9093 0.301531 42.1248 0.0163092C37.1133 -0.230883 31.7923 2.30014 27.8923 6.7871C26.4468 8.44961 25.0238 9.89576 23.5543 9.37671C22.9903 9.1768 22.5338 8.69475 22.0508 8.18443C21.9583 8.0873 21.8668 7.98966 21.7738 7.89458C18.7653 4.80803 14.1443 3.44153 9.99976 4.41386C5.56676 5.45402 1.84376 8.63976 0.515761 12.5306C0.509761 12.5486 0.504261 12.5666 0.500261 12.5845L0.0137608 14.6875C-0.0372392 14.909 0.0517608 15.1392 0.235761 15.2646C0.421261 15.3905 0.661261 15.3843 0.839261 15.2497C4.92176 12.1667 10.2988 11.0459 15.2273 12.249C15.2343 12.251 15.2418 12.2526 15.2488 12.2546C15.7143 12.3687 16.1798 12.5172 16.4273 12.8271C17.0138 13.5615 16.2373 14.8381 15.4818 15.7801C14.8488 16.5694 14.2218 17.7966 14.3603 18.8733C14.4298 19.4155 14.6913 19.8662 15.1163 20.1761C15.1728 20.2172 15.2353 20.246 15.2993 20.2619C15.4778 20.3056 15.6718 20.2516 15.8048 20.1072C17.9023 17.8275 21.3913 16.9261 24.2878 17.9179C25.2158 18.2355 26.0728 18.7145 26.9793 19.2222C27.5143 19.5219 28.0683 19.8312 28.6368 20.1036C30.6048 21.0466 32.3368 21.2471 33.7853 20.6997C34.7793 20.3246 35.6423 19.4499 36.0368 18.4154C36.3638 17.5582 36.3413 16.6763 35.9723 15.9332C35.3803 14.7389 34.1463 14.2106 33.0588 13.7444C32.8748 13.6653 32.6923 13.5877 32.5148 13.507C31.7098 13.1416 30.4088 12.2356 30.6443 11.1538C30.7143 10.8311 30.9218 10.5279 31.1363 10.2478C33.4103 7.27172 37.5198 5.64673 41.8603 6.0075C45.3403 6.29632 48.9423 7.70033 53.1933 10.4266C53.3708 10.5407 53.5978 10.5356 53.7698 10.4143C53.9428 10.2915 54.0293 10.0767 53.9908 9.86492H53.9903Z" fill="white"/>
</g>
<defs>
<clipPath id="clip0_4_76">
<rect width="54" height="21" fill="white"/>
</clipPath>
</defs>
</svg>
