<svg width="346" height="18" viewBox="0 0 346 18" fill="none" xmlns="http://www.w3.org/2000/svg">
<g clip-path="url(#clip0_4_176)">
<path d="M51.1136 4.68246C35.3864 20.9045 15.7273 -11.5396 0 4.68246V12.877C15.7273 -3.345 35.3864 29.0991 51.1136 12.877V4.68246Z" fill="#FFD600"/>
<path d="M196.591 4.68213C180.864 20.9042 165.136 -11.5399 149.409 4.68213V12.8767C165.136 -3.34533 180.864 29.0987 196.591 12.8767V4.68213Z" fill="#FFD600"/>
<path d="M149.409 4.68213C133.682 20.9042 114.023 -11.5399 98.2954 4.68213V12.8767C114.023 -3.34533 133.682 29.0987 149.409 12.8767V4.68213Z" fill="#FFD600"/>
<path d="M98.2954 4.68213C82.5681 20.9042 66.8409 -11.5399 51.1136 4.68213V12.8767C66.8409 -3.34533 82.5681 29.0987 98.2954 12.8767V4.68213Z" fill="#FFD600"/>
<path d="M247.705 4.68213C231.977 20.9042 212.318 -11.5399 196.591 4.68213V12.8767C212.318 -3.34533 231.977 29.0987 247.705 12.8767V4.68213Z" fill="#FFD600"/>
<path d="M294.886 4.68213C279.159 20.9042 263.432 -11.5399 247.705 4.68213V12.8767C263.432 -3.34533 279.159 29.0987 294.886 12.8767V4.68213Z" fill="#FFD600"/>
<path d="M346 4.68213C330.273 20.9042 310.614 -11.5399 294.886 4.68213V12.8767C310.614 -3.34533 330.273 29.0987 346 12.8767V4.68213Z" fill="#FFD600"/>
</g>
<defs>
<clipPath id="clip0_4_176">
<rect width="346" height="17.5588" fill="white" transform="matrix(1 0 0 -1 0 17.5588)"/>
</clipPath>
</defs>
</svg>
