<svg width="147" height="142" viewBox="0 0 147 142" fill="none" xmlns="http://www.w3.org/2000/svg">
<g clip-path="url(#clip0_10_382)">
<path d="M146.061 79.2854C144.558 78.0468 142.92 76.9844 141.178 76.1161C137.752 74.0794 134.255 72.1595 130.881 70.0418C125.834 66.8708 120.842 63.608 115.877 60.3094C113.378 58.749 110.995 57.0125 108.748 55.1106C107.259 53.4459 105.858 51.704 104.551 49.8938C103.191 48.4179 102.253 46.6059 101.828 44.6446C101.404 42.6834 101.512 40.6449 102.139 38.7393C103.565 34.0852 104.101 29.2028 103.722 24.351C102.977 18.1886 102.904 11.9436 102.521 5.73808C102.49 4.71522 102.362 3.69955 102.141 2.70005C101.415 -0.104282 99.5339 -0.857497 97.4498 1.07498C93.0515 4.92375 88.8923 9.03677 84.9975 13.3925C79.4196 20.3206 72.8257 26.3679 65.4425 31.3312C62.0421 33.5262 58.3937 33.3859 54.7236 33.7023C54.3873 33.6502 54.0619 33.5513 53.7544 33.4057C51.4384 32.8287 49.1457 32.1222 46.7991 31.7195C41.437 30.7955 36.0676 29.8446 30.6642 29.2406C26.1166 28.7336 21.6122 27.1625 16.9208 28.57C14.5778 29.2729 13.7578 30.472 14.6893 32.7262C15.0795 33.67 15.5901 34.5634 15.9714 35.5108C17.3398 39.7982 19.0552 43.9651 21.0997 47.9757C23.5398 51.7274 25.0503 56.004 25.5088 60.455C25.3164 62.1088 25.2805 63.777 25.4063 65.4381C26.3504 68.53 24.7428 71.1042 24.2627 73.8834C24.0325 75.113 23.4751 76.2581 22.6479 77.1965C22.4142 77.9928 22.1409 78.7784 21.828 79.546C21.8046 79.6035 21.783 79.6629 21.7596 79.7204C21.4378 80.5006 21.0763 81.261 20.6736 82.0016L20.8282 82.1634C20.4829 82.5912 20.1377 83.0191 19.7907 83.4451C19.0138 84.6334 18.1184 85.7407 17.1186 86.7492C15.0453 89.3145 12.972 91.8779 10.8969 94.4431C8.59708 97.2834 6.24688 100.084 4.00277 102.968C2.61818 104.747 1.39363 106.651 0.00364685 108.63C0.16728 109.184 0.302142 109.747 0.402839 110.315C0.460381 111.195 0.91172 112.003 1.62919 112.513C2.34845 113.024 3.25833 113.185 4.10886 112.954C10.8268 111.936 17.5681 110.971 24.1998 109.522C31.2576 107.978 38.2614 109.189 45.2904 109.191C47.6694 109.191 50.0484 109.038 52.4291 109.017C53.6825 108.783 54.9753 108.869 56.1855 109.267C59.4977 111.415 62.6427 113.834 65.7589 116.268C71.8421 121.018 74.169 128.451 78.4324 134.504C81.0272 138.185 83.5356 141.18 87.7253 142C88.2504 141.132 88.5795 140.485 89.002 139.908C89.8723 139.054 90.6132 138.078 91.2012 137.01C93.51 129.898 95.6498 122.733 97.8634 115.591C98.1816 114.566 98.6815 113.594 98.9495 112.558C99.4835 109.538 100.246 106.563 101.231 103.656C102.274 101.01 103.92 98.6461 106.04 96.7513C109.278 94.1376 112.328 90.7795 117.1 90.7741C117.911 90.6483 118.683 90.3319 119.348 89.8502C119.618 89.6848 119.871 89.4942 120.103 89.2785L120.078 90.2798C122.054 90.5404 124.05 90.6285 126.042 90.544C130.779 89.9562 135.479 89.0862 140.189 88.2988C141.708 88.0669 143.138 87.4251 144.321 86.4436C145.504 85.4621 146.396 84.175 146.901 82.7225C147.185 81.5091 146.876 80.2327 146.067 79.2836L146.061 79.2854ZM107.223 57.514C108.183 58.172 109.141 58.8299 110.512 59.7701C107.275 59.4932 104.783 59.3566 102.317 59.0222C101.526 58.767 100.784 58.3805 100.12 57.8789L100.633 57.0916C102.85 57.4259 105.067 57.7603 107.282 58.0947L107.221 57.514H107.223ZM100.697 18.3953L101.584 18.4205C102.762 25.0305 102.459 31.8202 100.697 38.2989V18.3953ZM103.885 52.6118L101.62 52.468C101.511 54.2033 101.007 55.1333 100.109 55.258C100.338 53.8738 100.561 52.5291 100.784 51.1845L100.165 50.9274C98.6995 53.2086 97.234 55.4881 95.6372 57.9724C95.4377 57.647 95.3352 57.2713 95.3423 56.8884C96.8744 53.4154 98.4766 49.9711 100.016 46.6131C101.246 48.5168 102.544 50.5301 103.887 52.61L103.885 52.6118ZM67.843 34.9751C66.8055 36.9615 66.0413 38.4266 64.9875 40.4471C64.3923 39.8287 63.9374 39.0899 63.6551 38.2774C63.8313 36.1723 65.5 35.5935 67.8412 34.9733L67.843 34.9751ZM65.0577 41.3603L63.7953 45.9389L62.9862 46.0576C62.6643 44.526 62.3442 42.9962 62.0026 41.3621H65.0577V41.3603ZM24.4083 30.4935C26.7136 30.889 29.017 31.2845 32.0146 31.7986C28.7617 33.9432 26.7028 31.4031 24.3292 31.1389L24.4083 30.4935ZM19.9831 30.3425C23.0777 31.6836 26.1651 33.021 29.5619 34.4933C28.9865 35.5683 28.4075 36.6505 27.841 37.7111C22.6803 35.9818 19.3573 32.8646 19.9813 30.3425H19.9831ZM46.6804 104.106C44.7959 103.431 42.2425 102.542 41.944 106.223C41.4837 106.753 40.8166 107.059 40.1135 107.063C38.4089 107.057 36.6916 106.604 35.0049 106.719C31.3061 106.971 27.6091 107.366 23.9372 107.882C18.6488 108.625 13.3802 109.527 8.10438 110.36L7.62787 109.218C11.6396 106.937 15.6585 104.652 19.6864 102.362C20.2618 103.786 19.6558 105.109 17.8684 106.333C31.8725 106.398 45.4702 105.022 56.5056 94.5546L57.0037 95.5882C56.0147 96.3648 55.0239 97.1396 53.8893 98.0295C53.9864 98.22 54.1158 98.3944 54.2705 98.5418C54.6751 98.7935 55.1012 99.011 55.5418 99.1889C53.2833 100.406 51.397 101.422 49.2428 102.583C49.6132 104.33 49.0072 104.941 46.6768 104.107L46.6804 104.106ZM49.3381 106.574C49.0756 106.489 48.831 106.358 48.6134 106.189C50.248 103.913 52.5478 104.314 54.8747 104.799L55.0958 104.028L53.366 102.578C54.2201 102.092 55.0617 101.614 55.9032 101.138C57.1655 103.807 58.3307 106.273 59.4959 108.74C56.5434 106.022 52.8481 106.739 49.3399 106.574H49.3381ZM59.584 108.808C60.3914 108.443 61.0244 107.778 61.348 106.955C61.6717 106.13 61.6609 105.211 61.3157 104.395C60.85 103.57 61.0154 102.391 60.5605 101.555C59.8754 100.49 59.1021 99.4874 58.2498 98.5526L57.4892 98.8204C57.9567 97.794 58.4224 96.7693 58.8864 95.7464C59.6776 95.8166 60.4022 95.8795 61.1251 95.9442L61.4074 95.4444C60.3249 94.6984 59.2442 93.9506 58.1761 93.2136C59.635 90.3685 61.0208 88.765 62.3334 88.403C61.9055 94.2508 62.6643 100.122 64.565 105.668C64.8994 106.89 64.2844 108.506 65.5522 109.581C66.2031 109.856 66.8954 110.018 67.6021 110.063L69.0316 114.886C65.687 112.736 62.6355 110.773 59.5823 108.81L59.584 108.808ZM71.1319 114.561L72.1712 114.28C72.9031 116.004 73.6349 117.728 74.5052 119.776L72.4625 120.047L71.1319 114.561ZM100.172 98.8078C98.606 96.7298 97.1603 94.8135 95.5923 92.7336C98.6456 93.0572 101.048 96.3918 100.172 98.8078ZM103.044 96.2516L103.876 92.9259C104.74 93.1201 105.459 93.2819 106.588 93.5371L103.044 96.2498V96.2516ZM96.9211 91.1103C95.871 91.1391 94.8407 90.8101 94.0009 90.1791C93.1612 89.5463 92.5606 88.6493 92.2963 87.6301C97.8292 88.9441 103.242 90.2312 108.654 91.5166L108.661 91.8689C104.749 91.5885 100.832 91.0725 96.9229 91.1103H96.9211ZM132.75 89.0376H120.378C120.673 88.7248 121.062 88.5163 121.484 88.4408C125.235 88.2952 128.997 88.3725 132.753 88.3725L132.748 89.0358L132.75 89.0376ZM143.553 84.3925C140.829 86.3357 137.468 87.1699 134.152 86.724C131.261 86.5964 128.364 86.6881 125.487 87.0009C122.246 87.0854 122.166 87.0224 122.229 83.7381C122.27 81.6115 122.504 79.4885 122.651 77.3655L122.54 77.2666C121.991 79.7258 121.342 82.1688 120.941 84.6496C120.991 85.7299 120.36 86.7276 119.36 87.1429C111.083 91.0761 103.128 89.1563 95.0115 86.4957C90.1241 84.6765 85.6341 81.9333 81.7824 78.4207C81.207 77.7987 80.4338 77.3888 79.5958 77.2612C78.7849 77.5255 78.0836 78.0522 77.6035 78.7568C79.1823 81.6708 80.9211 84.4985 82.6293 87.3424L83.3666 86.9469C82.6024 85.1565 81.8399 83.366 80.9319 81.2358C85.5388 83.0137 88.4374 86.3879 91.4008 89.6272C92.7782 91.1337 93.8553 92.9133 95.1104 94.5366C96.6622 96.665 97.6009 99.1782 97.8238 101.803C98.7319 108.402 96.1929 114.199 94.5044 120.227C93.3608 124.315 92.3412 128.442 91.0394 132.478C90.2194 134.567 89.2646 136.602 88.1821 138.568C87.8566 138.297 87.5671 137.986 87.3207 137.641C88.619 133.341 84.0211 131.007 83.8341 127.121C83.586 125.032 82.9134 123.015 81.8561 121.196C80.8258 125.152 82.9926 128.564 83.4745 132.251L81.2573 133.202C77.5675 131.218 75.7514 126.526 73.2735 122.251C74.6095 121.043 75.2047 121.498 75.6111 123.103C76.0121 124.218 76.512 125.293 77.1036 126.317C78.2454 124.325 74.8559 121.57 78.9827 120.811C75.0213 120.203 75.2083 116.898 73.9748 114.456C75.0033 114.05 75.9168 113.691 76.8734 113.313C76.7853 113.155 76.663 113.018 76.5174 112.91C74.4315 112.795 71.353 113.52 70.4558 112.438C68.3483 109.649 66.7192 106.532 65.6295 103.212C62.8783 96.07 63.1444 88.1172 66.3649 81.1747C66.6922 80.1267 66.8954 79.0445 66.9691 77.9479L65.9388 77.6369C65.2051 79.573 64.4103 81.4875 63.7594 83.4487C63.3746 84.61 63.3836 85.7946 61.6555 86.0517C60.6809 86.3879 59.8682 87.0782 59.3791 87.9842C52.9794 98.2182 43.0589 102.353 31.7215 104.026C29.1951 104.4 26.6471 104.686 24.0991 104.837C21.4018 104.999 22.5221 102.338 21.1195 101.353C22.4843 100.631 23.4122 100.14 24.3814 99.6276C24.2501 99.4173 24.1027 99.2159 23.9408 99.029C21.0907 100.399 20.197 99.295 20.2078 96.3918C19.9669 95.2161 19.5047 94.0962 18.8502 93.0913L18.068 93.3448C17.9403 94.1969 17.8109 95.049 17.6814 95.901L17.7102 95.8525C20.3427 101.443 20.8821 100.293 15.1999 103.106C12.1359 104.625 8.98009 105.961 5.75238 107.431C3.94163 104.864 5.96456 103.022 6.87803 101.605C8.41366 99.2231 11.0444 97.5746 12.7886 95.2934C16.358 90.6231 19.7133 85.7839 23.022 80.9212C24.518 78.1349 26.8503 75.886 29.6896 74.491C34.4673 72.1864 39.6712 70.8939 44.9722 70.6962C50.2857 70.804 55.6029 70.7267 60.9201 70.7303C61.6789 70.7303 62.4377 70.7303 64.0525 70.7303C63.5868 70.0922 62.997 69.5529 62.3191 69.1466C49.3111 68.8554 38.8908 62.9052 29.3947 54.5838C27.0373 52.8941 25.1564 50.62 23.939 47.9865C23.8042 47.6809 23.6909 47.3681 23.601 47.0463C23.6495 46.8432 23.7412 46.6526 23.8707 46.489C25.3847 47.5586 26.879 48.6138 28.3751 49.6709L28.7959 49.137C26.6435 46.8216 24.6097 44.3822 22.3081 42.2268C19.8698 39.9959 18.4133 36.8896 18.2604 33.5891C21.0979 35.4155 23.9354 37.2419 26.8988 39.1492C26.3899 40.3051 25.8936 41.4322 25.3991 42.5576L25.9709 42.9441C27.7727 40.35 29.5727 37.7578 31.3349 35.2213C32.2483 35.3562 33.0611 35.4766 34.0735 35.6276C33.3057 34.5257 32.6907 33.643 32.0739 32.7586L32.4911 32.115C33.4549 32.2121 34.4169 32.3235 35.3807 32.4026C37.9989 32.4476 40.6116 32.6849 43.1938 33.1109C45.5476 33.803 47.8223 34.7396 49.98 35.9063C55.4968 38.707 60.0606 43.0807 63.0941 48.4754C64.0165 50.1508 64.8509 51.873 65.5935 53.6347C65.928 53.5664 66.2606 53.4999 66.5951 53.4315C66.6113 52.1336 66.4908 50.8375 66.2355 49.563C65.4658 47.0948 65.669 44.4253 66.8019 42.1028C67.3917 40.7977 67.7207 39.3757 68.2944 38.0634C71.1013 32.5213 74.7803 27.4663 79.1894 23.089C84.6397 17.0022 90.2086 11.0214 95.7326 4.99925C96.0472 4.6559 96.4176 4.36288 97.2646 3.5827C95.6498 7.87908 94.2778 11.5157 92.913 15.156C92.3304 16.7127 91.5806 17.6313 89.6566 16.7757C88.5093 16.4395 87.3207 16.2597 86.125 16.2436L85.9505 16.9716C87.5617 17.554 89.1711 18.1383 91.1095 18.8394C90.1421 20.7664 89.2394 22.5623 88.3349 24.3671C86.5853 23.9141 85.0353 23.515 83.0933 23.0135C84.0211 21.5035 84.8788 20.1103 85.7366 18.7171C82.2733 20.6622 79.5707 24.8543 80.4248 26.6861C82.41 22.6737 84.8285 25.9994 87.4071 25.9221C86.9521 27.3009 86.3821 28.6401 85.7042 29.9219C85.2007 30.5906 84.4455 31.0238 83.6147 31.1227C82.5071 31.0688 81.4066 30.9178 80.3241 30.6697C79.3225 30.3425 78.249 30.3192 77.2348 30.6032C76.1092 32.1671 75.1364 33.8354 74.3326 35.5863C74.5718 35.7211 74.8109 35.8541 75.0483 35.9889C76.1631 34.5095 77.0262 32.1851 78.4558 31.7609C80.2558 31.227 82.5178 32.2444 84.8734 32.6417C83.8539 34.9841 82.9944 37.1017 81.9874 39.1492C81.6493 39.6202 81.1009 39.897 80.5183 39.888C78.1069 39.5411 75.7154 39.0432 73.1188 38.5596C73.8489 36.2262 74.5178 34.0888 75.1849 31.9532C74.7785 31.8454 74.3722 31.7393 73.9658 31.6314C72.4949 36.7871 71.0222 41.9428 69.5513 47.1002L70.614 47.4508C70.9898 46.5232 71.2973 45.5686 71.5329 44.5961C72.3133 40.0355 72.2881 39.9923 76.832 40.2817C78.1555 40.4345 79.47 40.6628 80.7664 40.9648C81.0955 46.6436 77.5279 46.5447 73.3634 45.5848L73.6151 46.4639C75.1813 46.791 76.7493 47.1164 78.9431 47.5748C78.3857 49.279 77.5028 50.8573 76.3411 52.2217C74.7893 53.3417 71.1678 51.9377 69.8803 50.3378C67.5733 54.627 66.7587 63.2863 68.5839 64.2948C68.9974 61.3574 69.5243 58.4362 69.7868 55.4899C69.9936 53.1727 71.2074 52.8635 73.1009 53.3219C74.0826 53.5592 75.0806 53.73 76.5353 54.0266C75.8269 56.004 75.1759 57.8214 74.4189 59.9354C72.9552 59.0043 71.9105 58.3391 70.5618 57.4799C69.8336 60.4352 73.1458 59.655 73.696 61.2927C72.6315 64.5464 71.5203 67.9476 70.4072 71.3487L71.3962 71.8179C71.8529 71.3739 72.2395 70.8652 72.5452 70.3079C74.2337 65.67 75.8413 61.0051 77.5046 56.3581C78.4989 53.579 80.6855 53.516 83.6111 56.4192C84.9418 53.8864 86.2257 51.4416 87.5114 48.9985L86.7777 48.5042C85.6467 50.3198 84.5174 52.1354 83.2713 54.1344C81.9083 53.827 80.4338 53.4945 78.9629 53.1619C79.2308 49.4264 82.6851 41.8295 84.3843 41.1877C83.7352 39.6867 85.2852 34.6551 86.7687 33.1576C87.0582 32.7136 87.265 32.2211 87.3783 31.7015C88.0238 30.0909 88.6064 28.4496 89.3922 26.909C90.0306 26.8209 90.6815 26.8964 91.2839 27.1265C91.9654 27.3422 92.6343 27.5957 93.287 27.8869L93.5963 27.2721L89.9371 25.1419C90.561 24.1029 91.0789 23.0045 91.4781 21.8612C92.0859 19.3265 93.5226 18.798 95.9286 19.8353C95.9753 20.5921 96.031 21.4927 96.0868 22.3933L96.6208 22.494C97.1495 19.6052 97.7932 16.7289 98.1745 13.8203C98.5557 10.9135 98.6743 7.97256 98.9063 5.04778L99.5572 4.95071C99.7083 6.04728 99.7856 7.15104 99.7928 8.25839C99.6561 10.8164 99.2803 13.3637 99.1994 15.92C98.9728 23.0423 98.8218 30.1664 98.7067 37.2922C98.6887 38.3816 99.2318 39.4926 99.1527 40.5658C98.989 46.8378 96.5561 52.8365 92.3053 57.4511C89.8292 59.7647 87.0294 61.7079 83.9941 63.218C80.6963 65.012 79.5922 68.3269 77.8084 71.1384C77.4596 71.8844 77.5459 72.7617 78.0332 73.4268C78.5205 74.0919 79.3315 74.4371 80.1479 74.331C82.3003 74.3814 84.4563 74.4065 86.6069 74.3274C90.8775 74.171 91.2911 75.1526 90.8362 79.0319H85.3553L85.2205 79.546C85.7294 79.742 86.2508 79.9037 86.7813 80.0314C89.1279 80.4466 91.7856 80.488 91.4601 84.1246C91.6202 83.2761 91.7802 82.4277 91.9744 81.3976C93.368 81.5881 94.6878 81.7697 96.6011 82.0304C95.6283 79.5155 93.2727 80.5509 91.8251 79.28C91.9834 77.9964 92.174 76.4559 92.3736 74.8362C93.7726 74.6366 94.9755 74.4659 96.1785 74.2951L96.2234 73.8385C94.9683 73.6048 93.715 73.3693 92.1974 73.0853C92.4581 69.6985 92.7152 66.3836 92.949 63.3492C90.6743 64.248 88.6838 65.0318 86.695 65.8174C90.5323 60.7714 96.0149 60.5592 101.449 60.5754C104.371 60.5844 107.412 61.9147 110.184 61.4293C113.966 60.7678 115.978 62.9393 118.487 64.7334C120.324 66.0493 122.398 67.029 124.302 68.2586C125.017 68.8212 125.676 69.4486 126.271 70.1353L126.247 70.0958C127.179 70.4409 128.087 70.8418 128.97 71.2966C133.69 74.0812 138.345 76.9808 143.105 79.6952C143.731 79.9163 144.249 80.3693 144.553 80.9608C144.857 81.5522 144.923 82.2353 144.74 82.8753C144.556 83.5134 144.136 84.0581 143.564 84.3961L143.553 84.3925ZM29.855 67.0901C29.5025 67.7229 28.9883 68.2514 28.3643 68.6199L27.7242 68.1939L27.467 63.315C30.8044 63.4139 29.7183 65.6753 29.8532 67.0901H29.855ZM28.1953 70.0203C29.5385 69.4037 30.9662 68.974 32.3634 68.4743L32.7392 69.1017C31.4571 69.9609 30.2092 70.8795 28.8678 71.6364C28.3661 71.6795 27.8626 71.5914 27.4077 71.3829C27.5515 70.8706 27.8231 70.4014 28.1953 70.0221V70.0203ZM35.174 63.2683C35.2711 64.1509 35.3412 64.7981 35.4113 65.4452L34.9636 65.5064L34.1346 61.2603L33.4531 61.3017V64.1006C32.1782 63.7195 31.1263 62.8099 30.5653 61.6037C30.0024 60.3974 29.9827 59.0097 30.5095 57.7873C33.1294 59.7952 35.7422 61.7978 38.3477 63.7932L37.9269 64.4691C37.098 64.1078 36.2708 63.7465 35.1758 63.2683H35.174ZM37.7885 68.4545C37.0027 69.1933 36.1288 69.8297 35.1847 70.351C34.4223 69.8729 33.7534 69.2599 33.2122 68.5408C34.9636 68.1903 36.0622 67.9709 37.1609 67.7516L37.7903 68.4545H37.7885ZM39.9661 65.048C39.9966 64.9329 40.047 64.8269 40.1117 64.728C42.8036 65.9522 45.4936 67.1764 48.1819 68.3988L48.1549 68.9327H39.2918L38.8548 68.3071L41.0665 65.9468C40.8508 65.7742 40.3958 65.4255 39.9643 65.0498L39.9661 65.048ZM97.261 8.65028C96.8672 12.3247 96.5381 15.3987 96.2091 18.4726C95.8476 18.5823 95.4862 18.692 95.1248 18.8016C94.5997 18.1041 94.2653 17.2826 94.1574 16.4161C94.9378 13.9659 96.04 11.6182 97.261 8.65028ZM90.2302 66.5652C90.3039 66.9103 90.3417 67.153 90.4064 67.3885C90.8074 68.2999 91.0591 69.2688 91.1562 70.2594C89.5469 71.435 87.7235 72.2799 85.7887 72.7491C83.692 72.8552 81.5918 72.7132 79.5275 72.3267C79.9429 69.0783 84.1901 66.7809 90.2302 66.5634V66.5652Z" fill="#FFD600"/>
<path d="M139.16 79.3375C140.314 80.7613 139.099 81.1963 138.133 81.3904C136.287 81.7428 134.42 81.9873 132.545 82.1221C130.423 82.2947 128.322 82.3809 127.887 85.2931L127.359 82.7549C126.49 82.6776 125.661 82.6038 124.106 82.4654C125.242 82.2066 126.323 81.7446 127.296 81.1028C127.842 80.1087 128.215 79.0283 128.4 77.9084C126.305 77.7106 124.474 77.5363 122.644 77.3637L122.532 77.2648C120.317 76.864 118.102 76.4649 115.78 76.046C115.277 78.8522 114.845 81.2556 114.484 83.269L102.476 82.3432L102.909 75.9292C101.888 75.5553 101.016 75.2335 100.142 74.9135L100.187 74.3922C100.951 74.2052 101.713 74.0165 102.535 73.8151C102.844 72.0319 103.159 70.218 103.474 68.406L104.004 68.4222V73.7181C107.133 74.2843 110.29 74.6636 113.462 74.8542C114.331 74.865 115.219 73.0979 116.384 71.8377L116.019 74.8578C124.043 77.0419 132.595 75.8123 140.422 79.129C139.994 79.2063 139.566 79.2836 139.138 79.3609C136.029 78.8414 132.92 78.32 129.709 77.7808L128.887 81.6439C132.642 80.799 135.9 80.0674 139.16 79.3339V79.3375ZM109.438 81.1891C110.362 81.0776 111.109 80.977 111.858 80.9015C112.587 80.8278 113.317 80.781 114 80.7253C114.408 76.0982 114.322 75.922 111.765 75.9292C109.095 75.9382 109.053 76.0227 109.438 81.1891ZM104.333 75.3431C104.141 77.5776 102.208 79.9433 105.34 81.1909C105.941 81.5666 106.696 81.5936 107.322 81.2628C107.947 80.932 108.352 80.2939 108.381 79.5874C108.697 78.5466 108.665 77.4302 108.291 76.4091C107.054 75.7961 105.709 75.433 104.331 75.3431H104.333Z" fill="#FFD600"/>
<path d="M32.5684 94.1952C31.6279 94.8406 30.6515 95.432 29.6445 95.9677C29.1303 96.0684 28.6016 96.0594 28.0909 95.9443C28.1467 95.4086 28.3193 94.8909 28.598 94.4307C29.641 93.4474 31.5164 92.7463 31.7394 91.6623C31.9678 90.5532 30.5724 89.1438 30.0024 87.8153C29.8963 87.2976 29.8855 86.7619 29.9718 86.2406L30.736 85.9458C31.6477 87.7524 32.5594 89.5591 33.4692 91.3639C40.5486 88.7555 40.1135 89.0629 36.4524 81.0831C35.0354 81.8993 33.6221 82.7154 31.9372 83.6861C32.7014 81.0202 37.5133 78.5269 40.59 79.0878C39.6999 79.6432 39.0436 80.0549 38.0797 80.6571L40.3796 87.3156C41.1888 86.388 42.1256 85.5791 43.1596 84.9103C45.2149 84.0025 46.7469 83.1684 45.1699 80.587C44.9793 79.8104 44.9631 79.0015 45.1196 78.2177C45.4127 78.2752 45.6932 78.3831 45.9485 78.5377C46.8692 81.2222 48.5744 81.8525 51.0643 80.4288C52.9973 79.3322 54.9591 78.2842 56.9173 77.2344C57.2572 77.2937 57.5826 77.4087 57.8847 77.5741C55.5094 79.4383 52.9847 81.1083 50.3414 82.5662C47.601 83.8174 47.7179 85.1548 49.1654 87.1718C49.4531 87.6284 49.4909 88.1982 49.2661 88.689C48.813 88.1335 48.3149 87.6068 47.9157 87.0154C47.4985 86.3952 47.1731 85.7139 46.5977 84.682C44.7024 86.1309 42.9959 87.436 41.2625 88.7627L41.5088 91.0961C39.4895 89.7155 34.1705 92.2843 34.3863 94.3804C34.6381 95.4068 34.6812 96.4746 34.5122 97.5191L32.5612 94.1916L32.5684 94.1952Z" fill="#FFD600"/>
<path d="M52.9739 48.7074C52.1684 49.8525 51.3628 50.9976 50.3558 52.4285L55.8474 56.013C56.6854 54.7295 57.464 53.5395 58.3073 52.2469C56.9893 50.8412 55.7072 49.4768 54.4269 48.1105L55.2396 47.2998C58.6148 50.5554 61.9881 53.8109 65.3615 57.0664L64.7807 57.7603L59.4761 53.1799C57.8865 54.5371 56.0758 55.7775 58.1742 58.323C54.8926 57.7999 55.2217 60.5737 53.8263 62.1232C55.4141 62.9645 56.7105 63.6512 58.007 64.3361L57.8056 64.8431C56.3383 64.4584 54.871 64.0737 53.339 63.671C52.8804 64.4045 52.4884 65.0336 51.6703 66.3423L51.8986 63.0131C50.595 62.3461 49.1313 61.5965 47.6658 60.8469L47.9247 60.1602C49.5017 60.6474 51.0805 61.1363 52.8948 61.6972L55.1138 57.1096C53.7256 56.2449 52.3626 55.4054 51.0086 54.5497C48.5595 53.002 48.5091 52.6999 50.3954 50.2569C50.9744 49.5073 51.6343 48.8188 52.2565 48.1016L52.9739 48.7038V48.7074Z" fill="#FFD600"/>
<path d="M41.3506 38.1768C44.1773 40.2207 47.004 42.2628 49.8307 44.3067L49.3309 45.0384C48.2358 44.3427 47.1389 43.647 45.8334 42.8183C44.9182 44.1971 43.9939 45.5849 42.9078 47.2189C44.1989 48.1393 45.3857 48.986 46.5707 49.8327L46.2398 50.4457C45.0171 49.8651 43.7925 49.2844 42.4205 48.6337C41.8577 49.8507 41.3326 50.985 40.8094 52.1193L40.2411 51.9917L41.1726 47.6809C39.6064 46.9079 37.8154 46.0271 35.8716 45.0672C34.6506 47.0841 33.5304 48.9357 32.4101 50.7873L31.7682 50.4961L34.3378 44.6303L32.6133 42.7086L32.8615 42.1046C33.8217 42.2628 34.7837 42.4192 35.7475 42.5792L38.2883 39.4333L38.8601 39.8252C38.2092 41.0296 37.5565 42.2323 36.8246 43.5841C37.6374 44.0856 38.3585 44.4955 39.0418 44.9593C41.6779 46.748 43.6379 46.0073 44.1396 42.8686C43.922 42.1586 43.4688 41.542 42.8557 41.1249C42.1364 40.422 41.311 39.8252 40.5306 39.1834L41.3524 38.1786L41.3506 38.1768Z" fill="#FFD600"/>
<path d="M68.3285 88.0562C68.8697 83.9054 67.1812 80.0441 69.8731 76.8928L70.7722 76.9863L69.6106 86.059C70.6697 85.9817 71.6119 85.9116 72.725 85.8307L71.3638 75.2749C74.9961 77.9912 72.4858 83.3212 75.7369 85.5665C75.5409 87.8908 75.3575 90.0678 75.1741 92.2465L74.5196 92.5144C73.4532 89.6561 73.8614 84.8168 68.3339 88.0598L68.3285 88.0562Z" fill="#FFD600"/>
<path d="M79.4933 104.415C78.1285 108.265 81.3921 111.846 79.8997 115.742C79.5886 114.559 79.3602 113.346 78.9502 112.199C77.9415 109.921 77.0748 107.582 76.3519 105.199C75.9077 102.621 75.6776 100.012 75.665 97.3968C75.8844 96.9923 76.208 96.6544 76.6018 96.4153C76.9884 96.6885 77.3067 97.0481 77.5333 97.4651C77.857 99.1225 77.9505 100.829 78.3263 102.472C78.6068 103.178 79.0006 103.834 79.4933 104.413V104.415Z" fill="#FFD600"/>
<path d="M70.8693 106.552C70.0601 103.552 69.2509 100.552 68.3734 97.3069C72.5955 95.0598 77.3589 94.0261 82.133 94.321C78.204 95.4085 74.2732 96.4943 70.1806 97.6286C70.8171 100.827 71.3782 103.636 71.9374 106.444L70.8693 106.552Z" fill="#FFD600"/>
<path d="M107.786 65.6143H98.4945V75.4295L97.4821 75.4547C97.3958 72.1164 97.2448 68.7764 97.2987 65.44C97.59 64.7748 98.1942 64.3002 98.9081 64.1744C101.512 64.0162 104.13 64.0306 106.739 64.0971C107.237 64.2931 107.678 64.6094 108.025 65.0157L107.784 65.6143H107.786Z" fill="#FFD600"/>
<path d="M28.5621 85C28.5746 85.4926 28.5315 85.9851 28.4308 86.4669C24.8183 88.1207 25.3236 90.7129 26.5751 93.6934C27.3429 95.8021 27.9956 97.9539 28.5297 100.133L27.8662 100.406C27.0408 98.5543 26.1579 96.7261 25.4081 94.8457C24.669 92.9888 24.0648 91.0797 23.2107 88.651C24.5899 87.7109 26.3126 86.5352 28.5621 85.0018V85Z" fill="#FFD600"/>
<path d="M54.3495 74.1242C58.8935 72.5045 64.2125 73.2595 68.2709 68.8787C67.3197 73.193 60.2655 75.6522 54.3495 74.1242Z" fill="#FFD600"/>
<path d="M90.6401 103.653L88.9103 105.182C87.3351 104.544 85.7275 103.892 84.1685 103.259C85.0298 103.009 86.1555 102.682 87.6552 102.245C86.7938 98.9805 85.9379 95.7411 85.0838 92.5018L85.4794 92.1494C86.071 92.89 86.5709 93.7008 86.9701 94.5619C87.5545 96.3236 87.7612 98.2201 88.4266 99.944C89.0505 101.246 89.7914 102.488 90.6419 103.654L90.6401 103.653Z" fill="#FFD600"/>
<path d="M89.6907 124.994L88.2989 111.452L89.3508 111.343C90.5556 115.752 90.9602 120.344 90.543 124.897L89.6889 124.994H89.6907Z" fill="#FFD600"/>
<path d="M126.229 70.0976C125.902 70.3295 125.521 70.4769 125.122 70.5272C121.486 69.659 117.866 68.735 114.248 67.7948C113.727 67.6456 113.299 67.2753 113.076 66.7809C117.735 66.1913 122.442 67.3903 126.251 70.1353L126.228 70.0958L126.229 70.0976Z" fill="#FFD600"/>
<path d="M90.0539 42.3473C91.3342 38.1713 92.4598 34.47 93.6287 30.783C93.839 30.5385 94.1052 30.3498 94.4055 30.2329C95.2021 32.1941 92.4113 40.2045 90.0539 42.3473Z" fill="#FFD600"/>
<path d="M17.6939 95.8562C15.0902 98.0187 12.4847 100.181 9.87912 102.346L9.10591 101.596C10.1237 100.508 11.127 99.4065 12.161 98.3333C12.8875 97.3752 13.765 96.5429 14.7611 95.8687C15.7214 95.6692 16.7121 95.6818 17.667 95.9047L17.6957 95.8562H17.6939Z" fill="#FFD600"/>
<path d="M61.7256 77.8779C62.31 79.6989 59.5876 82.532 54.8063 85.0667L53.7525 84.0133C56.3797 81.991 59.0068 79.9686 61.7256 77.8779Z" fill="#FFD600"/>
<path d="M44.6323 59.3601C40.5594 58.6878 36.83 56.6726 34.0321 53.6382L34.3935 53.0486C37.8064 55.1518 41.2193 57.2569 44.6323 59.3601Z" fill="#FFD600"/>
<path d="M45.6734 89.5085C46.0366 92.214 43.1218 94.4898 38.6659 94.8386L45.6734 89.5085Z" fill="#FFD600"/>
<path d="M89.0469 131.762C88.7808 129.736 88.5165 127.71 88.2414 125.622C90.3722 125.862 90.8397 128.185 89.0469 131.762Z" fill="#FFD600"/>
<path d="M62.0403 61.4132C64.4966 62.9196 66.9529 64.4278 69.4092 65.9343L68.8877 66.8205C66.4062 65.3806 63.9248 63.9407 61.4433 62.5008L62.0403 61.4114V61.4132Z" fill="#FFD600"/>
<path d="M42.8107 77.529C44.6502 76.6338 46.4898 75.7368 48.3311 74.8416L48.8993 76.0999C47.0328 76.8999 45.1663 77.698 43.2998 78.498L42.8107 77.529Z" fill="#FFD600"/>
</g>
<defs>
<clipPath id="clip0_10_382">
<rect width="147" height="142" fill="white"/>
</clipPath>
</defs>
</svg>
