<svg width="73" height="156" viewBox="0 0 73 156" fill="none" xmlns="http://www.w3.org/2000/svg">
<g clip-path="url(#clip0_10_417)">
<path d="M4.03288 78.2203C0.945485 78.3981 0.519498 76.244 0.487042 73.71C0.558039 71.9499 0.450528 70.1879 0.168565 68.4501C-0.435931 65.7099 0.616866 65.0593 3.08151 65.5968C3.29247 65.6372 3.51155 65.6008 3.69817 65.4937C2.31067 63.9196 1.22948 62.103 0.507327 60.1368C0.507327 57.9807 0.947513 55.8468 1.80557 53.8665C2.51555 52.0559 3.1241 50.2069 3.62718 48.3277C4.15459 45.0561 4.33513 41.9846 7.2217 39.4082C9.31512 37.539 10.1083 34.2957 11.869 31.9537C13.0537 30.6362 14.5 29.5794 16.1147 28.8459C23.7662 24.9378 29.7767 18.4492 33.0771 10.5401C34.2516 7.70098 35.0265 4.69819 36.0326 1.78632C36.4201 1.14171 36.8785 0.541554 37.3998 0C37.6534 1.07503 37.7731 2.17834 37.7548 3.28368C36.4647 9.74394 42.2034 20.9489 49.4877 23.8223C53.4352 25.1419 57.0561 27.2818 60.1131 30.1007C62.7806 33.1682 64.7016 36.8055 65.73 40.7338C65.9958 41.7926 66.6084 42.7323 67.4705 43.4032C71.3247 45.3269 72.4464 48.8308 72.917 52.5611C73.128 54.6687 72.9454 56.7965 72.3815 58.8354C71.0123 63.4407 70.0568 68.1591 69.5254 72.932C69.1724 73.8858 68.5983 74.7426 67.8478 75.4296C67.2859 75.9207 66.8234 76.5148 66.4846 77.1796C65.8639 80.0227 65.4278 82.9003 65.1742 85.798C64.375 98.7124 63.9084 111.651 62.9165 124.549C62.383 131.586 61.3606 138.575 59.8555 145.47C59.0867 148.19 57.3421 150.532 54.9546 152.054C49.5486 155.889 43.4773 156.21 37.6433 155.921C30.9411 155.222 24.3099 153.949 17.8267 152.118C16.7658 151.627 15.997 150.671 15.7475 149.536C14.9523 145.023 14.4493 140.463 13.8204 135.92C12.5405 126.677 11.3497 117.42 9.9257 108.2C8.74105 100.523 7.32515 92.8826 5.90925 85.2423C5.47921 82.9265 4.70431 80.6775 4.04099 78.2203H4.03288ZM49.0232 136.652L48.5871 136.251C48.6013 135.809 48.6804 135.372 48.8244 134.952C52.4453 128.076 55.7802 121.023 59.8473 114.418C61.957 110.475 63.0382 106.07 62.9956 101.604L62.1233 101.21L46.6133 128.146L45.9216 127.821C46.0738 127.027 46.3091 126.249 46.6235 125.503C49.4533 120.332 52.2384 115.131 55.2386 110.057C57.7032 105.888 60.4579 101.891 63.0443 97.791C63.3709 97.2656 63.5575 96.6654 63.5859 96.0471C63.6772 92.9129 63.6914 89.7768 63.738 86.2607C54.8106 100.84 31.0182 147.802 30.1439 152.567C30.6023 152.755 31.077 152.961 31.5618 153.145C35.8135 154.739 40.1262 153.894 44.4712 153.664C47.6763 153.816 50.8042 152.662 53.135 150.467C53.3155 150.267 53.5488 150.124 53.8105 150.053C57.046 149.406 57.7113 146.8 58.1657 144.187C59.1942 138.274 60.2044 132.353 60.9874 126.404C61.4884 122.601 61.5716 118.744 61.8393 114.911L61.0421 114.684C57.0358 122.007 53.0295 129.33 49.0232 136.652ZM12.6723 110.37C12.9685 108.927 13.4005 107.513 13.9665 106.151C17.1289 100.137 20.4537 94.2082 23.6587 88.2127C25.5919 84.5956 27.4074 80.9179 29.3588 77.1048C28.022 76.7633 26.6102 76.8441 25.3221 77.3392C24.032 77.8323 22.9305 78.7133 22.1678 79.8591C18.7822 84.8765 15.9078 90.2355 12.7636 95.4187C9.73908 100.406 10.5545 105.361 12.7048 110.344L16.4758 141.212C18.8593 137.07 21.3239 132.709 23.8636 128.393C27.8963 121.543 32.1298 114.805 36.0042 107.868C40.4304 99.941 44.5747 91.8561 48.8001 83.8177C50.0091 81.5161 51.0761 79.1397 52.2262 76.7633C51.07 76.1813 49.7251 76.0985 48.5059 76.539C47.2888 76.9775 46.305 77.899 45.7918 79.0831C43.7065 83.0457 41.5177 86.9559 39.2215 90.8074C36.56 95.2893 33.6775 99.6399 31.0283 104.126C28.874 107.775 26.8151 111.489 24.9083 115.27C22.6059 119.835 20.5166 124.505 18.2913 129.108C18.0093 129.387 17.6665 129.595 17.2872 129.714L16.6928 129.421C17.1289 127.793 17.6685 126.192 18.3075 124.628C20.0419 121.769 21.5552 118.782 22.8331 115.693C24.888 108.772 30.0668 103.805 33.4037 97.7081C37.3025 90.5831 41.5218 83.6338 45.6052 76.6017C44.6721 76.7653 43.7247 76.826 42.7774 76.7855C41.9721 76.5491 41.1059 76.6239 40.3534 76.9937C39.6008 77.3635 39.0145 78.004 38.7143 78.784C35.8095 84.2198 32.6186 89.504 29.6225 94.8933C27.6508 98.4417 25.8029 102.061 23.9366 105.668C21.5896 110.204 19.2913 114.765 16.9362 119.298C16.6036 119.797 16.2181 120.257 15.784 120.672L14.9523 120.158C16.6725 112.152 22.0602 105.846 25.6913 98.7367C29.3933 91.4924 33.4726 84.44 37.3877 77.3028L36.8582 76.729C34.6634 77.2119 32.1561 76.4117 30.6388 79.2993C29.0464 82.3304 26.9206 85.0806 25.2937 88.0955C21.6485 94.8569 18.1919 101.719 14.5852 108.501C14.0456 109.216 13.4026 109.845 12.6743 110.366L12.6723 110.37ZM43.5401 53.2461L43.3799 52.1226C44.457 51.2395 45.6214 50.4696 46.8588 49.823C48.9745 48.9501 51.1633 48.2711 53.3987 47.7922C57.9953 46.8404 60.3524 43.5769 62.1558 39.7295C63.1335 37.64 61.6142 36.0841 60.6811 34.4271C59.3625 31.3738 56.906 28.9489 53.8287 27.6617C47.6499 25.5076 41.8666 22.6968 39.0511 16.2022C37.8847 13.5146 36.8298 10.7785 35.704 8.01824C34.1421 12.9225 31.6125 17.4671 28.2634 21.3833C24.9144 25.2995 20.8107 28.5084 16.1979 30.8201C13.0293 32.1881 10.729 35.005 10.0271 38.3716C12.3031 37.3309 14.2586 36.3528 16.277 35.5304C22.2246 33.1055 29.371 33.0469 32.7464 27.2677L36.4018 28.0214C36.4363 28.1628 36.412 28.3124 36.3328 28.4356C36.1158 28.7064 35.8825 28.9631 35.633 29.2035C32.0324 33.8007 26.3749 34.6918 21.4882 36.9389C18.1249 38.4847 14.5162 39.5153 11.1935 41.1339C9.4206 41.9018 7.90733 43.1627 6.83425 44.7651C5.76117 46.3676 5.1729 48.2428 5.14044 50.1685C10.9602 48.0003 16.5812 45.5431 22.8879 45.727C28.8923 46.0119 34.7851 44.0457 39.404 40.2165C39.9436 39.8386 40.5096 39.5052 41.1019 39.2182L41.8037 39.7598L39.7286 43.5729L41.6374 44.5913C39.6312 45.7937 37.5601 46.8869 35.4342 47.8629C28.5231 50.5727 21.1332 50.797 13.8772 51.4699C9.86079 51.8053 6.16281 53.7856 3.66572 56.94C2.8036 57.9322 2.49932 59.2901 2.85837 60.5551C3.21742 61.818 4.1911 62.8163 5.44878 63.2103C6.61517 63.9459 7.69028 64.8127 8.65382 65.7948C11.0008 65.3907 14.1227 64.6551 17.2872 64.3581C21.8452 63.9297 26.4459 63.9438 31.008 63.5417C35.1381 63.178 39.2316 62.1575 43.3576 62.0504C50.7008 61.8605 58.0562 62.1616 65.4075 62.2181C67.8944 62.2363 70.9595 60.062 70.9818 57.8352C71.0995 54.8445 70.7729 51.8518 70.0122 48.9561C69.1501 47.3456 67.7768 46.0645 66.1073 45.3127C65.0667 45.4562 64.0829 45.8705 63.2573 46.5171C62.2897 46.9677 61.3566 47.4972 60.3666 47.8952C55.8451 49.7119 51.3337 51.5588 46.7594 53.238C45.6944 53.4219 44.6051 53.426 43.5381 53.2481L43.5401 53.2461ZM21.8817 150.205C21.5694 149.734 21.3503 149.208 21.2306 148.657C32 123.379 47.2949 100.462 59.4031 75.8863C56.3847 74.6759 55.0053 75.1871 53.5326 77.9212C51.567 81.5686 49.5141 85.1695 47.5079 88.7967C45.2826 92.818 43.0127 96.815 40.8645 100.877C37.4404 107.343 34.4382 114.058 30.6388 120.292C25.4012 128.237 20.8573 136.619 17.062 145.341C16.7395 146.349 16.8105 147.444 17.2608 148.402C17.7132 149.362 18.5104 150.116 19.4942 150.514C21.6708 151.243 23.894 151.829 26.1477 152.268C27.0747 152.292 27.9551 151.857 28.4987 151.108C30.3812 147.341 31.9148 143.401 33.8236 139.65C37.3126 132.794 40.9883 126.033 44.5706 119.225C48.9644 110.875 53.4981 102.594 57.6667 94.1335C60.2977 88.7927 64.0727 83.854 64.4014 77.5817C64.3324 76.737 64.1539 75.9045 63.8679 75.1083C63.0362 75.4094 62.2795 75.8823 61.6426 76.4946C58.0562 82.389 54.413 88.2592 51.1247 94.3194C46.4186 102.992 42.1121 111.879 37.4181 120.558C33.2617 128.243 27.9206 135.286 25.0381 143.663C24.1111 145.902 23.0562 148.087 21.8797 150.207L21.8817 150.205ZM10.1367 97.2393C11.6844 94.2628 12.8833 91.7227 14.2911 89.3039C16.0985 86.1961 18.1858 83.2478 19.8857 80.0894C19.9912 79.0407 19.8248 77.9818 19.4049 77.0139C17.9687 77.1493 16.5873 77.6282 15.3763 78.4062C11.1671 83.7368 7.98847 89.502 10.1387 97.2413L10.1367 97.2393ZM52.9078 63.9741C51.4777 65.7059 50.216 67.571 49.1429 69.5412C49.0699 70.7779 49.4249 72.0005 50.147 73.0088C50.504 73.6433 51.1329 74.0778 51.853 74.1909C53.8572 74.1889 56.6159 69.4362 55.628 67.7185C54.7903 66.4233 53.8835 65.1724 52.9098 63.9741H52.9078ZM33.9838 75.6479C34.8196 72.1843 38.0551 69.2179 33.4179 66.6193C32.5639 67.3629 31.791 68.1954 31.1135 69.1007C30.2108 70.592 29.5657 72.2369 28.8111 73.8171L33.9859 75.6479H33.9838ZM41.6699 75.1548C42.7632 74.9891 43.7592 74.4395 44.4793 73.6049C45.1995 72.7704 45.595 71.7054 45.595 70.6041C45.8628 69.2098 44.1183 67.4296 43.2156 65.7221C38.694 69.2765 38.5906 70.1737 41.6678 75.1548H41.6699ZM7.99456 86.5153L8.71468 86.7376L12.6561 77.9151C10.8527 77.8909 9.78573 77.9757 8.74714 77.8424C7.08173 77.6282 6.67805 78.4769 6.88496 79.855C7.21967 82.0798 7.62131 84.2966 7.99456 86.5173V86.5153ZM61.1943 72.736C64.7097 67.5973 64.8862 66.2616 62.2552 64.6996C59.6127 67.6013 59.2591 70.2802 61.1943 72.736ZM68.9229 65.419L67.8539 65.0391L66.9208 69.8686C64.9937 69.3857 63.4114 70.8668 63.2897 73.5847L67.9269 73.2634L68.9229 65.419ZM23.5451 68.4622L19.9506 73.2331L21.5592 75.9389C23.0116 75.0396 25.1314 74.4476 25.5026 73.2957C25.8657 72.1722 24.4397 70.4768 23.5471 68.4622H23.5451ZM10.5485 75.3832C12.3457 75.565 14.1592 75.5468 15.9524 75.3306C16.7314 74.7426 17.1472 73.7928 17.0519 72.8229C16.4636 71.7438 15.6806 70.784 14.7434 69.9878L10.5485 75.3811V75.3832ZM31.3042 65.8777L30.9756 65.13C29.2128 65.4816 26.7725 65.2836 25.8982 66.3546C25.1781 67.2356 26.3161 69.6221 26.6325 71.3397L27.4804 71.3074L31.3042 65.8777ZM19.0763 71.8469C19.7275 69.8747 23.2408 68.935 21.1089 66.4192C19.7964 65.9726 18.346 66.2091 17.2446 67.0477C15.4838 69.0967 18.0763 70.2303 19.0783 71.8469H19.0763ZM9.58288 73.2957C10.8466 71.8206 11.8467 70.8325 12.6277 69.6968C13.5648 68.3328 13.2383 67.4276 11.4268 67.2255C9.05344 66.9628 8.40432 68.8502 7.88705 70.3697C8.19538 71.4731 8.77756 72.4794 9.58085 73.2978L9.58288 73.2957ZM44.2522 64.055L47.4755 68.6844L50.8955 64.1419L44.2522 64.055ZM37.9557 68.8502L40.6718 64.5359L40.2174 64.0024L35.1178 64.9946L37.9557 68.8502ZM2.42021 68.2035L2.33501 74.6799C4.99033 72.2793 4.79357 70.2647 2.42021 68.2035ZM60.6243 63.4407L55.9465 64.2308L57.4517 67.6943L60.6243 63.4407ZM4.39192 75.5569L4.87268 76.2076L9.38612 75.0396L6.0695 72.3319L4.39192 75.5569ZM60.7237 45.5108C63.7786 44.9551 63.3242 42.7404 63.3972 40.8146L60.7237 45.5108Z" fill="#19BBC3"/>
<path d="M45.8687 129.07L35.1642 154.018C33.9633 151.069 42.122 131.949 45.8687 129.07Z" fill="#19BBC3"/>
<path d="M48.2177 152.019C49.4612 142.522 55.2871 135.199 59.5287 127.12L60.3401 127.506L48.2157 152.019H48.2177Z" fill="#19BBC3"/>
<path d="M49.023 136.65L41.9861 152.074C41.5378 151.526 41.2416 150.869 41.1281 150.168C43.5318 145.486 46.0776 140.877 48.5869 136.25L49.023 136.65Z" fill="#19BBC3"/>
</g>
<defs>
<clipPath id="clip0_10_417">
<rect width="73" height="156" fill="white"/>
</clipPath>
</defs>
</svg>
