<svg width="155" height="159" viewBox="0 0 155 159" fill="none" xmlns="http://www.w3.org/2000/svg">
<g clip-path="url(#clip0_10_429)">
<path d="M155 60.2714C151.396 63.6133 147.876 67.0508 144.17 70.2768C135.949 77.4359 127.695 84.5586 119.347 91.5676C110.17 99.2677 100.956 106.929 91.5938 114.4C85.4818 119.276 78.9759 123.655 72.8277 128.488C65.4368 134.299 58.2699 140.399 50.9174 146.262C49.6203 147.001 48.2462 147.592 46.8201 148.029C46.0074 148.41 45.3034 149.017 44.5156 149.459C37.8807 153.273 30.8361 156.32 23.5176 158.539C22.0711 159.082 20.491 159.15 19.0038 158.734C17.5165 158.32 16.199 157.441 15.2392 156.227C14.087 154.169 14.1119 151.648 15.3094 149.613C18.6348 144.468 22.1277 139.43 25.3399 134.215C25.8175 132.865 26.0371 131.435 25.9873 130.002L25.195 129.755C23.9545 131.412 22.714 133.069 21.4735 134.727C17.8198 139.769 13.0276 143.873 7.49059 146.696C2.86811 148.974 0.151673 147.494 0.0203786 142.675H0.0181149C-0.0905426 139.533 0.285231 136.393 1.13185 133.365C3.24389 126.169 5.67736 119.063 8.18554 111.994C9.79277 107.463 11.7667 103.067 13.5641 98.6039C14.9834 95.0801 16.4277 91.563 17.7882 88.0142C21.1633 79.2114 24.4253 70.3677 27.8729 61.5923C30.4151 55.1198 33.3511 48.8019 35.7891 42.293C38.578 34.8475 41.0612 27.2837 43.5717 19.7336C45.2944 14.5547 46.8699 9.3281 48.4273 4.09691C48.6763 2.74649 48.8167 1.37787 48.8461 0.00244141C50.0798 0.736763 51.2705 1.54611 52.4092 2.42366C54.6887 4.71529 57.7175 6.09754 60.9343 6.32034C62.8426 6.1612 64.6897 5.57237 66.3422 4.59707C67.7616 3.88775 68.4814 3.87184 68.7576 5.55191C69.4458 9.71459 70.8266 12.8838 75.7637 13.8659C79.5894 14.698 83.5803 13.6954 86.5661 11.1514C87.0007 10.8195 87.4942 10.5626 88.2503 10.0897C89.0517 14.3229 90.2514 18.3355 94.0997 20.1633C97.4409 22.264 101.581 22.63 105.237 21.1455L105.579 21.923C105.067 22.4118 104.486 22.8233 103.854 23.1461C100.744 24.0918 97.3979 23.8599 94.4483 22.4913C91.4987 21.125 89.149 18.7174 87.8474 15.7278C87.5056 14.989 87.2045 14.2342 86.7359 13.1452C83.5373 16.062 79.0687 17.1146 74.9126 15.9347C72.7825 15.7597 70.7881 14.8025 69.3167 13.2452C67.8431 11.6879 66.9919 9.64184 66.9263 7.49571C64.9659 8.45055 62.7905 8.86432 60.6196 8.69836C58.4487 8.53012 56.3616 7.78671 54.5687 6.54313C52.5246 5.19953 49.867 6.71819 48.794 9.74414C46.2994 16.7782 44.0041 23.8827 41.5909 30.9463C40.4682 34.2337 39.3635 37.537 38.0641 40.7562C33.4371 52.2098 28.6426 63.5952 24.0812 75.0783C21.281 82.1305 18.8476 89.3305 16.1538 96.4282C13.6297 103.08 10.9789 109.682 8.38701 116.309C8.19007 116.675 8.0633 117.078 8.01576 117.492C7.92522 118.421 8.04519 119.363 8.3689 120.238C8.54321 120.554 9.87652 120.224 10.3745 120.672C11.9071 121.488 13.4396 122.307 14.9698 123.123C17.0275 124.223 19.1418 125.233 21.1294 126.447C22.0077 127.167 23.126 127.522 24.2578 127.445C25.3897 127.365 26.4468 126.856 27.2165 126.019C30.5532 122.927 33.9306 119.861 37.0454 116.55C41.471 111.849 45.8309 107.07 49.9259 102.08C53.9553 97.1716 57.5998 91.945 61.4481 86.8843C64.7056 82.5989 68.1124 78.4271 71.268 74.0689C75.3427 68.4421 79.2295 62.679 83.2045 56.9772C88.8457 48.886 94.5389 40.8312 100.094 32.6809C100.85 31.1645 101.493 29.5936 102.018 27.9817C102.752 26.4426 103.677 24.9967 104.784 23.0438C105.409 24.1282 105.758 24.717 106.088 25.3127C107.383 28.1158 109.581 30.4006 112.325 31.7965C113.359 32.4081 114.545 32.7173 115.745 32.6854C116.945 32.6536 118.113 32.283 119.116 31.6169C119.743 31.3123 120.411 31.0986 121.099 30.9826C121.201 31.6647 121.327 32.3422 121.4 33.0287C121.475 35.018 121.687 37.0004 122.041 38.9601C122.715 41.902 124.857 44.2823 127.7 45.2599C130.545 46.2352 133.69 45.6691 136.014 43.7571C136.68 43.3729 137.377 43.0478 138.097 42.7818C137.542 54.7651 142.749 60.551 154.774 59.3893L155.007 60.2737L155 60.2714ZM22.9788 140.89L28.1265 134.995L27.2504 134.358L23.015 140.89C22.4763 141.604 21.8764 142.279 21.4055 143.034C19.7078 145.564 18.1526 148.185 16.7446 150.889C16.2217 152.134 16.3054 153.555 16.9755 154.728C17.9896 155.949 19.2233 158.07 21.5798 156.581C21.5346 156.413 21.4553 156.256 21.3512 156.117C17.4644 153.285 17.1815 151.621 19.5968 147.533C20.8577 145.398 21.856 143.107 22.9766 140.888L22.9788 140.89ZM151.285 61.4627C149.581 61.2808 148.619 61.1808 147.657 61.0762C143.073 60.1714 139.165 57.1772 137.085 52.9759C135.616 47.9584 135.571 48.0812 130.591 47.6742C127.879 47.4537 124.506 47.8766 122.851 45.319C121.409 42.6727 120.35 39.8331 119.704 36.8868C119.704 35.9001 119.929 34.9271 120.356 34.0381C117.538 34.8884 114.523 34.7929 111.763 33.7676C109.004 32.7423 106.654 30.8394 105.067 28.3523C104.569 28.8638 104.105 29.4026 103.671 29.9687C99.5009 36.2252 95.4308 42.5476 91.1705 48.7382C87.8949 53.4943 84.3884 58.0889 80.9793 62.7517C73.1605 73.4437 65.3643 84.1539 57.4934 94.8072C55.7232 97.2035 53.6587 99.3769 51.7617 101.682C47.9995 106.256 44.4613 111.04 40.4546 115.386C36.0924 120.12 31.3047 124.46 26.637 129.032C28.1378 131.462 30.2385 133.465 32.7331 134.843C36.8168 137.741 40.7217 140.89 44.4183 144.271C45.1472 145.18 46.2247 145.735 47.386 145.794C48.545 145.855 49.6769 145.416 50.4941 144.589C55.2433 140.774 59.9405 136.889 64.7237 133.112C74.2471 125.594 83.7954 118.105 93.3663 110.646C100.624 104.956 107.947 99.345 115.109 93.5341C119.944 89.6079 124.567 85.4157 129.253 81.3075C134.955 76.3083 140.635 71.2839 146.298 66.2392C147.829 64.8774 149.262 63.4042 151.278 61.4627H151.285ZM30.3992 135.857C29.3398 136.57 28.3777 137.423 27.5402 138.389C25.1474 141.949 22.8792 145.596 20.688 149.286C19.9885 150.102 19.7961 151.239 20.1877 152.239C20.5793 153.239 21.4916 153.942 22.5555 154.062C24.5928 154.278 26.6505 153.962 28.5339 153.151C33.0093 150.818 37.2401 148.015 41.9441 145.175C38.7862 141.292 34.8542 138.116 30.3992 135.857ZM6.58284 121.622C6.33157 122.352 6.05766 123.025 5.86751 123.721C4.54778 128.493 2.94961 133.217 2.06903 138.069C2.02375 140.472 2.35652 142.868 3.056 145.169C5.26763 144.978 7.4272 144.405 9.44416 143.475C14.2455 140.408 18.3858 136.4 21.6093 131.689C21.8651 131.039 22.01 130.348 22.0394 129.648C21.3603 129.884 20.7151 130.212 20.1243 130.618C16.4096 133.99 12.8284 137.518 9.02764 140.788C6.59869 142.879 4.61795 141.94 4.51156 138.632C4.53419 136.657 4.86243 134.699 5.48268 132.824C6.23876 130.218 7.24837 127.683 8.21497 125.144C8.59527 124.473 8.62696 123.659 8.30325 122.959C7.97954 122.259 7.33892 121.759 6.58511 121.616L6.58284 121.622ZM7.26422 139.971C9.55734 138.137 11.4407 136.784 13.143 135.231C15.04 133.519 16.8216 131.685 18.4786 129.739C18.8996 128.995 18.9517 128.097 18.6189 127.308C16.4209 126.133 14.1459 125.108 11.812 124.235C11.2053 124.239 10.6462 124.555 10.3293 125.076C8.93483 128.954 7.56529 132.849 6.42212 136.807C6.46739 137.912 6.75488 138.992 7.26422 139.974V139.971ZM37.9509 150.397C41.8739 149.258 43.0329 148.395 43.3996 146.351L37.9509 150.397Z" fill="#173864"/>
<path d="M31.9363 92.0175C31.5152 92.0243 30.947 92.0061 30.3834 92.0447C28.6698 92.1652 28.2849 91.4195 28.964 89.9259C30.5373 86.4566 32.1038 82.9851 33.6635 79.509C36.561 73.016 39.3454 66.4708 42.3765 60.0415C43.9543 56.6973 46.0323 53.594 47.7573 50.3134C51.2977 43.5863 54.8064 36.841 58.2224 30.0502C60.4113 25.6989 62.3649 21.2293 64.5335 16.8666C65.1425 15.9413 65.8646 15.0955 66.6795 14.3499L67.4967 14.6931C66.7859 17.3985 65.9167 20.0585 64.8889 22.6616C62.4487 27.9928 59.6191 33.1399 57.1267 38.4483C51.7799 49.8474 46.6028 61.3305 41.2333 72.7205C39.2299 76.9695 36.8145 81.0208 34.7206 85.2312C33.6589 87.366 32.8938 89.6508 31.9317 92.0175H31.9363ZM36.8259 75.9056L37.6295 76.2852L49.0453 51.9458L48.2824 51.5843L36.8236 75.9056H36.8259Z" fill="#173864"/>
<path d="M39.0941 96.3894L35.3092 96.4258C35.5763 95.7119 35.9023 95.0208 36.2894 94.3638C41.4325 87.0706 46.5394 79.7478 51.7934 72.5365C55.6825 67.1984 59.7775 62.0104 63.7729 56.7497C66.9942 52.5074 70.2064 48.2607 73.414 44.0093C76.3025 40.1854 79.3789 36.4865 81.9957 32.483C83.6391 29.9685 84.8208 27.2427 88.5966 26.6743C88.4405 27.3609 88.1982 28.0247 87.8791 28.6499C85.4003 32.1647 82.9465 35.7022 80.3319 39.1146C75.3472 45.6166 70.0841 51.9095 65.2692 58.5321C60.9116 64.5271 57.0746 70.9019 52.8596 77.0061C48.2621 83.665 43.4924 90.2079 39.0918 96.3894H39.0941Z" fill="#173864"/>
<path d="M16.07 102.428C16.1606 101.791 16.4141 101.189 16.808 100.68C20.1492 99.0085 22.9403 96.4077 24.8509 93.1885C25.0456 92.627 25.5187 92.2087 26.1005 92.0927C26.6822 91.9768 27.2798 92.1791 27.6737 92.6224C29.8967 94.182 32.2034 95.6165 34.5825 96.926C36.1513 97.8013 37.4801 99.5223 39.7325 98.6311C40.3867 98.8039 40.9232 99.2768 41.179 99.9065C40.7579 104.015 40.1761 108.107 39.5989 112.197C39.282 112.647 38.8904 113.04 38.4399 113.358C38.3765 112.263 38.3674 111.162 38.415 110.064C38.5689 108.58 38.9447 107.113 39.0443 105.629C39.2186 103.021 39.4653 100.714 35.7416 99.8247C33.0591 98.7698 30.5622 97.2921 28.3483 95.4438C27.8752 95.0527 27.2595 94.8777 26.6505 94.9641C26.0439 95.0505 25.4983 95.3869 25.152 95.8939C22.6098 98.3651 19.8504 100.609 17.1792 102.946L16.0723 102.428H16.07Z" fill="#173864"/>
<path d="M113.192 40.6992L116.132 37.3323C116.282 37.6506 116.363 37.9984 116.375 38.3508C114.473 41.7155 112.737 45.1984 110.566 48.3835C107.901 52.2824 105.038 56.0404 101.991 59.6461C99.0074 63.1881 95.5462 66.3255 92.5808 69.8811C87.2248 76.2991 82.1247 82.9307 76.8367 89.4032C73.7536 93.1771 70.4395 96.7646 67.3609 100.541C63.9631 104.706 60.6875 108.973 57.4459 113.261C57.1969 113.872 57.2603 114.568 57.6179 115.123C58.8494 116.76 60.2438 118.269 61.4187 119.642C67.4039 114.429 73.534 109.298 79.4105 103.892C82.4326 101.111 84.8887 97.7217 87.8179 94.8276C90.6951 91.9835 93.8009 89.3645 96.8863 86.741C105.056 79.7934 113.285 72.9162 121.452 65.9663C123.655 64.0907 125.724 62.056 127.858 60.1008C129.35 58.7322 129.524 58.764 130.724 60.6214L133.905 58.8049C133.862 59.6484 133.647 60.4736 133.273 61.2284C124.1 68.7581 114.822 76.1604 105.683 83.731C100.42 88.0914 95.3334 92.6679 90.2242 97.2102C84.8072 102.025 79.4241 106.884 74.0795 111.783C71.7593 113.897 69.5295 116.109 67.2341 118.249C66.0547 119.349 64.821 120.392 63.3926 121.652C66.6795 123.209 64.8663 124.892 63.6235 126.851C62.5143 128.879 61.5092 130.962 60.6151 133.092C60.1601 133.892 59.6575 134.663 59.1097 135.402L58.4012 135.118C58.4487 134.39 58.5845 133.669 58.8109 132.976C59.8952 130.653 61.0338 128.352 62.254 126.099C62.666 125.58 62.8516 124.917 62.7678 124.26C62.6841 123.603 62.3355 123.007 61.8035 122.611C60.0288 120.931 58.3763 119.126 56.8618 117.207C54.9807 114.859 54.2858 114.7 51.4969 115.921C48.4862 117.239 45.3939 118.38 42.3063 119.513C41.7947 119.513 41.2899 119.383 40.8394 119.14C41.1156 118.681 41.4891 118.29 41.935 117.994C45.7199 116.732 49.3645 115.082 52.8098 113.067C58.5619 109.948 60.5313 104.226 64.2981 99.7883C66.0117 97.7672 67.5578 95.6029 69.2239 93.5409C73.1514 88.678 77.0495 83.7901 81.0676 79.0022C85.355 73.8915 89.8598 68.9627 94.0997 63.8156C98.9938 57.8751 103.757 51.8232 108.454 45.7258C109.647 43.948 110.724 42.0906 111.675 40.1695C112.094 39.4466 112.551 38.7441 112.993 38.0348L113.715 38.3212C113.554 39.1124 113.393 39.9035 113.232 40.697C108.841 46.8012 104.449 52.9054 100.055 59.0095C103.225 54.7673 106.817 50.9115 110.084 46.7921C111.324 44.8733 112.365 42.8295 113.192 40.697V40.6992Z" fill="#173864"/>
</g>
<defs>
<clipPath id="clip0_10_429">
<rect width="155" height="159" fill="white"/>
</clipPath>
</defs>
</svg>
