<svg width="156" height="94" viewBox="0 0 156 94" fill="none" xmlns="http://www.w3.org/2000/svg">
<g clip-path="url(#clip0_10_405)">
<path d="M75.4016 27.2538C88.2066 20.364 100.972 13.3984 113.842 6.63146C118.017 4.4854 122.313 2.58683 126.712 0.944778C128.839 -0.0541841 131.251 -0.269151 133.52 0.336007C135.79 0.941165 137.777 2.33032 139.128 4.25599C139.776 5.23327 140.073 6.40204 139.972 7.57081C139.798 10.4196 139.409 13.2629 138.975 16.0882C138.767 17.5406 137.849 18.7924 136.529 19.4211C135.208 20.0515 133.661 19.9756 132.407 19.2206C131.752 18.4853 131.278 17.6038 131.026 16.6518C130.896 16.3808 130.914 16.0412 130.808 15.754C130.114 13.8554 129.95 11.1909 128.59 10.2263C125.66 8.06577 121.87 7.45158 118.41 8.57699C114.588 9.76021 111.045 11.7058 107.99 14.2944C106.026 15.4939 103.951 16.4982 101.793 17.2913C96.9301 19.9847 92.1388 22.8063 87.3186 25.5756L87.4339 26.1645C89.826 26.3271 92.2144 26.5854 94.6101 26.6324C98.6358 26.7101 102.662 26.7064 106.689 26.6234C107.966 26.5981 108.435 26.9431 108.1 28.1986C106.102 28.083 104.108 27.9276 102.109 27.8571C97.1642 27.6819 92.2126 27.6259 87.2718 27.3568C84.8293 27.3098 82.4589 28.1841 80.6288 29.8081C81.6051 29.8605 82.1167 29.9002 82.6282 29.9147C88.113 30.0628 93.6032 30.1098 99.0825 30.3898C102.246 30.7023 105.419 29.9183 108.076 28.1697C113.031 26.692 118.156 25.8592 123.324 25.693C130.289 25.2992 137.326 25.2956 144.124 23.2579C146.102 22.6636 148.192 22.4378 150.677 21.9573L156 33.9178C150.904 39.8935 149.429 47.6702 147.188 55.0875C145.879 59.1592 143.679 62.8877 140.749 65.9984C135.296 72.2432 127.854 76.3999 119.689 77.7619C117.234 78.1521 114.734 78.1864 112.268 77.8613C107.828 77.5036 103.431 76.7322 99.133 75.5526C91.4507 73.4084 85.3625 67.5284 82.938 59.9107C82.4355 58.3607 81.8483 56.8469 80.2037 57.0059C78.3268 57.1884 77.6027 58.7997 77.2767 60.6928C76.6679 66.2188 75.571 71.6796 73.9985 77.0104C71.356 84.7167 65.167 90.6707 57.3802 92.9974C55.1377 93.5773 52.8267 93.8392 50.5121 93.7742C44.6509 94.1066 38.7752 94.0687 32.9176 93.6586C28.528 93.1167 24.3959 91.2831 21.042 88.3928C16.9856 85.0094 12.5546 82.0685 8.19197 79.0716C7.14725 78.3544 5.63421 78.349 4.52284 77.6969C3.35744 77.164 2.39738 76.2644 1.78856 75.1353C1.05365 72.3914 0.475454 69.6094 0.0593675 66.8004C-0.210818 65.3788 0.367379 64.8711 1.81918 64.4484C3.77893 63.818 5.63421 62.8949 7.32017 61.7099C10.4471 59.6126 13.2372 56.9445 16.5173 55.1543C21.1429 52.6524 25.9342 50.4684 30.857 48.6204C33.7516 47.5763 36.7848 46.982 39.8578 46.8555C43.6584 46.6514 47.3221 45.3652 50.4202 43.1469C53.6697 40.9213 57.1533 39.0462 60.4874 36.9417C63.1028 35.2907 65.6317 33.5041 68.2273 31.8205C69.1261 31.237 70.1078 30.78 71.0516 30.2651C71.1309 30.1387 71.2101 30.0104 71.2894 29.884L75.4214 27.2339L75.398 27.2538H75.4016ZM113.678 8.51738C114.807 8.29158 115.917 7.97003 116.992 7.55816C119.972 6.16901 123.376 6.00823 126.472 7.11197C129.498 8.08203 132.079 9.65363 132.168 13.458C132.227 14.5383 132.496 15.5968 132.958 16.5741C133.22 17.2768 133.774 17.8296 134.477 18.0897C135.268 18.0662 136.015 17.7248 136.55 17.1413C137.085 16.5579 137.364 15.7811 137.319 14.9899C137.611 12.8673 137.8 10.7321 138.09 8.60951C138.097 6.73081 137.339 4.92798 135.992 3.62193C134.644 2.31587 132.825 1.61497 130.952 1.68361C124.631 2.54348 119.166 5.53314 113.701 8.54448C111.583 9.2508 109.571 10.2425 107.718 11.489L108.181 12.2694C110.012 11.0193 111.844 9.76925 113.676 8.51738H113.678ZM100.244 32.03L100.149 31.1629C95.3918 31.1629 90.6347 31.1774 85.8794 31.1557C84.2043 31.4538 82.4805 31.349 80.8522 30.8504C80.2758 30.4964 79.6003 30.3374 78.9285 30.3952C78.2548 30.453 77.6172 30.724 77.1092 31.172C72.3431 33.7281 67.6473 36.4143 62.9335 39.0661C59.5201 40.9864 56.1212 42.9283 52.715 44.8594C53.9687 45.3832 55.2944 45.7138 56.6489 45.8403C59.8497 46.3533 63.0595 46.8248 66.2279 47.4968C67.0493 47.8779 67.7878 48.4163 68.4038 49.081C65.5561 48.9636 62.7245 48.5843 59.947 47.9448C56.1734 46.8158 52.1837 46.6225 48.32 47.383C47.0195 47.8021 45.6794 48.0911 44.3212 48.2447C41.4969 48.4668 38.4294 47.8563 35.8698 48.7559C29.3944 51.0013 23.0684 53.6604 16.9334 56.7169C13.3615 58.8647 9.97339 61.307 6.80501 64.0167C5.1929 65.2071 2.70179 66.1357 2.22626 67.682C1.71471 69.3475 3.08905 71.6001 3.65464 73.5927C3.80054 74.2701 4.14998 74.8861 4.65433 75.3594C5.15868 75.8326 5.79632 76.1397 6.47899 76.2409C7.70563 76.3854 8.88905 76.7846 9.95538 77.4115C14.4062 80.6342 18.8103 83.9273 23.1026 87.3595C26.2584 89.7621 29.9401 91.3735 33.8434 92.0563C41.405 93.6152 48.9684 92.078 56.4868 91.3879C61.0313 90.9724 64.4951 87.9376 67.5446 84.6734C70.405 81.9113 72.408 78.3797 73.3176 74.5031C74.2236 69.7377 74.9982 64.9434 75.7096 60.1455C75.7871 59.0652 76.1564 58.0265 76.7742 57.1414C77.3938 56.2544 78.2404 55.5535 79.2275 55.1127C79.8651 54.8273 80.5856 54.7822 81.2539 54.9863C81.9221 55.1886 82.4967 55.6276 82.8696 56.2183C83.5757 57.0185 84.0764 57.9796 84.3268 59.0183C87.1439 67.523 93.387 72.4004 101.602 74.7307C105.652 75.6881 109.786 76.23 113.943 76.3511C116.546 76.6257 119.175 76.4667 121.726 75.8832C128.297 74.299 134.252 70.7963 138.838 65.8177C142.211 62.2012 144.74 57.873 146.235 53.1546C147.907 47.6232 149.897 42.1931 152.196 36.893C153.475 34.5211 153.507 31.6687 152.28 29.268C152.071 28.8597 151.954 28.4045 151.787 27.9746C150.385 24.3779 149.593 24.0329 145.783 24.8837C143.031 25.5557 140.235 26.0507 137.42 26.365C132.218 26.8383 126.977 26.9124 121.78 27.4236C118.131 27.7289 114.514 28.3485 110.969 29.2788C107.765 30.1875 104.679 31.4718 101.775 33.1067C95.336 36.389 89.7575 41.1435 85.4868 46.9856C84.9608 47.943 83.7936 48.3368 82.7957 47.896C79.9462 47 76.8516 47.345 74.2669 48.8444C73.0132 49.6176 71.7379 50.3582 70.396 51.1584C70.5851 48.5536 77.7306 44.0754 79.8471 45.0978C80.02 45.1809 80.0849 45.6542 80.2037 45.656C81.7366 45.6741 84.0638 46.2792 84.678 45.5151C89.0334 40.1319 94.3038 35.5652 100.248 32.03H100.244ZM106.324 13.1744L105.756 12.1537C92.771 19.4084 79.431 26.0272 67.1105 34.4796C81.0287 28.9013 93.088 19.9793 106.324 13.1762V13.1744Z" fill="#1B3F71"/>
<path d="M71.0535 30.2616C68.9803 29.8081 66.8782 29.4884 64.7654 29.3059C58.5925 29.1434 52.4161 29.1903 46.2396 29.1416C40.9854 29.1 35.7204 28.8019 30.4824 29.0567C25.1075 28.9699 19.8605 30.7114 15.5987 33.9991C14.1632 35.5797 13.313 37.6065 13.1941 39.7418C13.0662 42.4406 13.2643 45.1448 13.7867 47.7949C14.183 49.5056 14.1109 51.2921 13.5814 52.9667C13.0518 54.6413 12.0827 56.1424 10.7768 57.3112C9.01341 58.8702 7.8408 58.48 6.88975 56.3791C4.28876 50.631 4.78049 44.7239 5.43254 38.6922C5.62528 35.4984 6.85192 32.4546 8.92515 30.0195C11.8702 27.084 15.8401 25.4149 19.992 25.3625C26.7754 24.8657 33.5823 24.4773 40.3784 24.4629C46.5567 24.4502 52.7367 24.9723 58.915 25.3047C63.5477 25.554 68.1805 25.8249 72.8043 26.2043C73.7194 26.4211 74.5966 26.7751 75.4071 27.2502L75.4287 27.2285C74.4056 27.5158 73.3537 27.6856 72.291 27.7307C64.8392 27.205 57.3983 26.4951 49.943 26.0309C45.4399 25.7509 40.917 25.7599 36.4013 25.7346C34.1029 25.722 31.7991 25.8719 29.5079 26.0688C28.8991 26.4752 28.3767 27.0009 27.9769 27.6133C31.4875 27.6133 34.247 27.5808 37.0047 27.6187C46.517 27.7506 56.033 27.812 65.5399 28.1281C67.4799 28.1932 69.8215 27.8626 71.2967 29.8768C71.2174 30.005 71.1382 30.1315 71.0589 30.2579L71.0535 30.2616ZM9.2944 56.0991C10.2563 55.5084 11.0344 54.6612 11.5387 53.6477C12.0431 52.6361 12.252 51.5017 12.1458 50.3781C12.1169 47.654 11.5045 44.9425 11.274 42.213C10.9714 38.62 11.2794 34.9005 14.5558 32.8791C17.8179 31.1792 21.1952 29.7124 24.6644 28.4912C25.1813 28.1841 25.6569 27.8102 26.0802 27.3821C25.6046 26.9702 25.0444 26.6703 24.4374 26.5042C22.8235 26.5204 21.2078 26.7498 19.5957 26.9214C12.9149 27.6314 8.14161 31.8548 7.41571 37.7872C6.969 40.8636 6.68441 43.9616 6.56372 47.0687C6.5349 50.2878 7.48596 53.4382 9.2908 56.1009L9.2944 56.0991Z" fill="#1B3F71"/>
<path d="M70.1475 55.9129C68.9064 56.0358 67.651 55.9509 66.4369 55.6637C61.5574 53.8879 56.2905 53.467 51.1912 54.4479C48.2894 54.7911 45.3966 55.2247 42.5075 55.6709C37.4856 56.5362 32.6367 58.2107 28.1498 60.6314C24.2519 62.6401 20.4729 64.8946 16.7281 67.1833C13.4174 69.2047 13.0302 71.5332 15.7032 74.3097C20.2838 79.0806 25.7073 82.959 31.6964 85.7463C41.2178 90.2119 49.6512 86.7236 57.9459 82.6862C61.017 81.0911 63.2812 78.2803 64.1908 74.9348C64.9833 72.31 66.4405 69.8858 67.2205 67.2592C67.6798 65.2107 67.9536 63.1225 68.0364 61.0252C67.9446 60.4959 67.9193 59.9576 67.959 59.4229C68.3787 58.628 68.8668 57.8711 69.418 57.1612C69.6053 57.9145 69.789 58.6696 69.9782 59.4229C71.0481 63.7005 69.0145 67.5338 67.7176 71.2496C65.1058 78.7229 60.8044 84.8251 52.3296 86.9874C47.8013 88.4867 43.0929 89.3755 38.3304 89.632C37.4172 89.6808 36.5039 89.5471 35.6447 89.2364C31.1434 87.4119 26.77 85.2839 22.5551 82.8687C19.4642 80.5402 16.5948 77.9317 13.9848 75.0739C13.657 74.7379 13.3796 74.3585 13.1617 73.943C11.3838 70.8685 12.0647 69.0404 14.799 66.7299C21.4582 61.0992 29.5998 58.4673 37.3739 55.0946C38.986 54.5527 40.6612 54.2185 42.3561 54.1011C49.145 53.0841 55.9393 51.7346 62.8308 52.8944C65.349 53.4526 67.8347 54.1517 70.2772 54.9899L70.1511 55.9148L70.1475 55.9129Z" fill="#1B3F71"/>
<path d="M116.789 68.0017V68.9013C108.545 67.2539 100.77 64.7122 94.6029 58.7257C92.5928 56.6862 90.6943 54.5383 88.9164 52.2947C88.6661 51.7799 88.6913 51.1729 88.9849 50.6816C95.7737 42.3774 104.751 36.1542 114.896 32.7183C119.008 31.4339 123.261 30.6572 127.562 30.4079C131.498 30.2345 135.439 30.2778 139.371 30.5361C144.063 30.6409 144.681 33.4879 143.334 37.388C142.516 40.2241 141.871 43.1054 141.401 46.0191C139.209 56.0594 134.115 63.4441 123.749 66.2928C122.574 66.6162 121.495 67.299 120.317 67.6061C119.154 67.8229 117.976 67.9548 116.792 68.0035L116.789 68.0017ZM126.139 31.6182L125.925 31.0203C120.84 32.6912 115.69 34.1888 110.684 36.0747C104.099 38.6344 98.1604 42.6248 93.2952 47.7606C92.4793 48.895 92.1821 50.3239 92.4757 51.6914C93.3673 54.9556 95.608 57.6797 98.6341 59.1773C100.57 60.1383 102.447 61.2185 104.252 62.4126C107.331 64.4828 110.906 65.6913 114.606 65.9153C116.479 66.3543 118.415 66.4374 120.317 66.161C130.527 63.5543 137.278 57.2263 139.692 46.7869C140.536 43.1306 140.826 39.3407 141.307 35.6032C141.572 34.5681 141.304 33.4662 140.594 32.6677C139.883 31.8711 138.823 31.4791 137.766 31.6272C133.89 31.5983 130.014 31.62 126.137 31.62L126.139 31.6182Z" fill="#1B3F71"/>
<path d="M38.3682 77.025L50.0295 70.7603L50.4437 71.472C47.6374 73.1104 44.8329 74.7471 41.5834 76.6438C44.8887 76.1958 47.6716 75.8165 50.4545 75.4389L50.5518 76.2934C46.5314 76.4867 42.7362 78.2046 38.7015 78.3058L38.37 77.025H38.3682Z" fill="#1B3F71"/>
<path d="M45.1265 63.7709C48.3435 61.8019 50.9589 58.6388 55.1107 58.5322L55.561 59.4174L45.4777 64.5296L45.1247 63.7709H45.1265Z" fill="#1B3F71"/>
<path d="M33.8201 71.5694C35.4826 70.2778 37.147 68.9862 38.8095 67.6946L39.3139 68.2799L37.2478 70.2561H42.2373L42.2535 70.6499C39.548 71.2424 36.8426 71.8349 34.1371 72.4275L33.8201 71.5694Z" fill="#1B3F71"/>
<path d="M28.9423 66.3488C32.0242 65.6172 35.1062 64.8874 38.1881 64.1558C35.4196 65.8484 32.2782 66.8275 29.0414 67.0081L28.9423 66.347V66.3488Z" fill="#1B3F71"/>
<path d="M112.124 53.8808C113.718 52.9667 115.312 52.0526 116.904 51.1386L117.291 51.7437L115.589 53.1961C119.311 52.6867 122.969 50.4106 127.058 50.8586L127.321 51.5197L119.462 57.5587L118.963 57.0095C120.845 55.353 122.728 53.6965 124.57 52.0761C120.431 52.1339 116.713 54.8436 112.484 54.7912L112.124 53.8808Z" fill="#1B3F71"/>
<path d="M106.952 50.4809C108.5 49.7548 109.144 47.7839 111.709 48.3421C113.374 48.3114 115.015 47.9429 116.533 47.2546L116.724 47.8417L107.3 51.2722L106.954 50.4809H106.952Z" fill="#1B3F71"/>
<path d="M120.409 45.815L127.007 44.1711L127.265 45.3291L120.49 46.552L120.411 45.8132L120.409 45.815Z" fill="#1B3F71"/>
</g>
<defs>
<clipPath id="clip0_10_405">
<rect width="156" height="94" fill="white"/>
</clipPath>
</defs>
</svg>
