<svg width="102" height="119" viewBox="0 0 102 119" fill="none" xmlns="http://www.w3.org/2000/svg">
<g clip-path="url(#clip0_10_422)">
<path d="M0.0159545 81.3988C-0.182486 73.3109 1.54633 65.2898 5.05793 58.0038C7.91547 51.8456 9.7697 45.2197 12.6526 39.0759C16.0198 31.1583 21.5047 24.3272 28.5009 19.3335C33.6429 15.5934 39.0833 12.2813 44.7651 9.4305C52.4265 5.8161 60.4085 2.92554 68.6049 0.795395C73.3564 -0.275244 78.2856 -0.265698 83.0323 0.82403C87.779 1.91535 92.2209 4.05822 96.0326 7.09673C98.4281 8.87848 99.5727 13.6765 99.5839 17.0984C99.6156 27.2591 98.4012 37.423 98.4472 47.5822C98.4789 54.4307 99.8585 61.2698 100.547 68.1216C100.786 70.4855 100.687 72.8814 100.873 75.2533C101.009 76.8585 101.257 78.4541 101.613 80.0258C102.799 85.4427 101.095 90.2852 98.9488 95.1357C94.7244 104.681 86.3534 107.325 77.1569 107.974C63.5677 108.798 50.0579 110.626 36.737 113.443C33.3936 114.227 30.1646 115.44 27.1309 117.051C20.4617 120.511 14.3529 118.973 8.34728 115.538C7.74402 115.066 7.29316 114.425 7.05345 113.696C2.82905 103.427 0.447761 92.4933 0.0159545 81.3972V81.3988ZM73.4453 59.9064L79.2413 71.6516L80.7225 70.748L73.3992 59.9526L65.8966 39.2573L63.3836 40.2881C65.9395 47.2083 69.3177 53.796 73.4453 59.9064ZM4.04985 93.9696C3.6879 88.8312 7.5424 91.3352 9.26328 91.5292C14.0481 92.0669 18.7567 93.2824 23.4907 94.2496C25.2369 94.6059 27.6198 95.3043 27.5071 92.7049C27.45 91.3686 25.3004 89.6648 23.7272 88.9743C21.973 88.2044 19.7648 88.5591 17.8137 88.1407C12.9527 87.0971 8.12344 85.8929 2.47979 84.5645L4.08478 93.9362C4.73725 97.9578 5.68818 101.925 6.9328 105.805C10.9175 115.812 17.9486 119.592 28.7184 113.456C28.3056 108.895 25.9476 107.002 21.6444 107.777C18.5297 108.34 15.4356 109.052 12.3002 109.445C11.127 109.383 9.9729 109.124 8.88545 108.679L9.15215 107.436C14.6291 106.676 20.1092 105.944 25.5767 105.125C26.3228 104.894 27.0308 104.555 27.677 104.119C27.1309 103.437 26.4657 102.861 25.7132 102.417C24.1289 101.951 22.5191 101.58 20.8903 101.305L21.0586 100.077L27.4055 100.441C28.2421 97.7192 27.5055 96.5802 24.6702 96.297C21.1919 95.9486 17.7803 94.9575 14.318 94.3832C12.7971 94.2162 11.2667 94.1462 9.73636 94.1732C7.84086 94.1032 5.94536 94.0348 4.05144 93.9696H4.04985ZM7.24236 59.0346C5.52942 63.7992 4.11335 68.6672 3.00209 73.6068C2.4909 76.5578 1.29391 79.9558 6.32477 82.191C13.0495 84.9511 20.1172 86.7822 27.3341 87.6301L29.0057 81.7169C28.2199 81.4194 27.4134 81.1792 26.5927 80.9994C20.5426 80.1913 14.4592 79.59 8.45047 78.548C6.60577 77.9021 4.87537 76.9651 3.32435 75.7735C5.21033 72.9625 6.93121 75.7942 8.68066 76.0153C14.7212 76.7773 20.7744 77.5728 26.7403 78.7643C29.9424 79.4038 30.8806 78.1534 31.3442 74.5533C23.4859 73.2775 15.7848 72.0653 8.10439 70.7369C6.94867 70.4696 5.8628 69.959 4.91982 69.2399C4.67057 68.6847 4.68169 68.0468 4.9468 67.5011C5.91361 66.9825 7.009 66.7534 8.1028 66.8425C14.5037 68.4795 20.8871 70.1976 27.2182 72.0875C32.3094 73.6068 33.1555 73.147 33.6365 67.6061L7.24395 59.0346H7.24236ZM24.7131 26.2044C23.1398 28.2534 21.6571 30.3088 20.0378 32.2496C18.7868 33.7498 18.2836 34.9604 20.2188 36.3667C26.2752 40.767 32.1347 45.4536 38.3229 49.655C43.3681 53.0801 43.6522 52.8192 47.7639 47.4565L24.7131 26.2044ZM79.8398 28.659C77.6062 21.2918 75.2471 14.0503 73.2627 6.70857C72.4848 3.82914 71.0783 3.27234 68.5525 4.01049C66.1808 4.7041 64.2694 5.4693 65.2552 8.73053C67.0603 14.7026 68.5541 20.7669 70.2448 26.7723C71.9721 32.9082 72.7118 33.1691 78.2094 29.8204C78.746 29.4942 79.235 29.0918 79.8382 28.6575L79.8398 28.659ZM94.6705 52.2195L95.107 52.1908C95.7548 41.1822 96.3628 30.1719 97.0692 19.1681C97.3804 14.3176 96.0405 10.3325 91.6161 7.88102C90.6921 7.26218 89.5571 7.04264 88.4696 7.26854C87.7917 8.10851 87.4869 9.19188 87.625 10.2625C87.6822 12.3783 88.1172 14.4814 88.2537 16.6004C88.5648 21.3937 88.1235 26.6116 95.677 26.8391L95.296 28.1707L90.3207 30.1354C91.7542 37.4103 93.2115 44.8141 94.6705 52.2179V52.2195ZM43.657 13.1292L35.5955 17.6011C41.4122 25.2085 46.8114 32.4309 52.4487 39.4609C53.5298 40.6174 55.0872 41.2013 56.6604 41.0406C57.2668 40.9356 57.8113 40.6063 58.1844 40.1163C58.5575 39.6263 58.7321 39.0139 58.6734 38.3998C58.6146 37.7857 58.3257 37.2178 57.8653 36.8089C53.2377 30.8799 51.6946 22.827 45.1096 18.2215C44.7873 17.5963 44.6174 16.9043 44.6127 16.1995C44.3618 15.2959 44.0602 14.4083 43.657 13.126V13.1292ZM80.7479 32.0523C79.5636 32.7252 78.3301 33.3059 77.0585 33.7879C74.0501 34.6056 73.1436 36.0119 74.7264 39.0425C76.4235 42.2926 77.6379 45.7924 79.0969 49.1682C81.9147 55.6955 84.7564 62.2116 87.625 68.8167C90.0127 68.7054 90.7398 67.5266 90.1286 65.3646C89.3316 62.5472 88.5188 59.733 87.7282 56.9156C85.4311 48.7435 83.1403 40.5697 80.7495 32.0507L80.7479 32.0523ZM36.8021 60.3041L13.1575 47.8605C12.3955 48.9407 11.7827 49.76 11.2239 50.6143C8.29807 55.0925 8.32188 55.7989 13.2369 57.8781C18.7138 60.196 24.4321 61.9363 29.9995 64.049C35.2542 66.0423 35.6717 65.8769 36.8021 60.3041ZM26.48 24.4767C33.9921 31.4605 40.9391 38.0244 48.0544 44.3989C49.1657 45.2054 50.6024 45.4043 51.8915 44.9318C53.7806 43.6782 52.4423 42.3944 51.1739 41.3349C50.7485 40.8688 50.3706 40.3629 50.0436 39.8236C44.6587 33.0402 39.2675 26.2585 33.6969 19.2492L26.48 24.4767ZM45.3223 54.6057C54.9427 61.5211 64.2472 68.2616 73.6437 74.8715C74.7216 75.2454 75.8663 75.3774 76.9997 75.2581C76.7648 74.2256 76.3346 73.2488 75.7329 72.3787C68.7049 65.8912 61.6547 59.4244 54.468 53.1183C50.3182 49.4784 50.1992 49.6137 45.3239 54.6073L45.3223 54.6057ZM13.4258 44.7441C16.2547 46.4065 18.8186 48.0212 21.4793 49.4546C26.6213 52.2242 31.7823 54.97 37.037 57.5122C38.134 57.7461 39.2786 57.4613 40.139 56.7391C40.4407 55.8068 40.2613 54.7839 39.6612 54.0108C36.9195 51.7979 34.0064 49.7918 31.0933 47.8033C26.191 44.4561 21.2427 41.179 16.169 37.773L13.4242 44.7441H13.4258ZM67.3651 90.3393L66.6888 89.1016C65.9522 88.9982 65.2044 88.9409 64.4774 88.785C55.3062 86.8235 46.124 84.9097 36.9735 82.8464C33.2063 81.9969 30.9377 82.8925 30.6599 86.0567C30.3551 89.5248 33.2381 88.8853 35.232 89.1032C44.7238 90.1404 54.2172 91.1745 63.728 92.0001C65.0489 91.7265 66.2935 91.1586 67.3651 90.3393ZM64.4916 35.8831C58.9194 27.7459 59.8053 16.7579 50.9437 10.8018C47.1019 11.2759 47.1718 13.2978 48.7482 16.093C51.4406 20.8687 53.9648 25.7383 56.6969 30.4901C58.0892 32.9098 59.7815 35.1545 61.3896 37.5551L64.4901 35.8831H64.4916ZM82.0497 27.5677C86.3265 26.5878 86.5074 26.575 86.2693 23.1102C85.8946 17.6568 85.2834 12.2193 84.6691 6.78652C84.5532 6.04996 84.0928 5.41362 83.4308 5.07477C81.0829 4.59433 78.6825 4.36843 75.5186 3.94686L82.0497 27.5677ZM66.3602 35.0733C69.975 34.2381 69.5257 32.345 68.8923 30.2133C67.4159 25.2419 66.1173 20.2164 64.6202 15.2514C63.7455 12.3497 62.6279 9.52118 61.5452 6.44608L56.1683 8.85462L66.3586 35.0733H66.3602ZM82.8275 30.5426L93.2623 66.5896L94.6213 66.2905L87.5203 29.5595L82.826 30.5426H82.8275ZM83.8499 70.9342L84.7802 70.7003C84.6849 69.5963 84.4754 68.5065 84.1531 67.447C80.2462 58.1151 76.3155 48.7912 72.2419 39.5341C71.4847 38.6098 70.5369 37.8621 69.4638 37.3435C69.0844 38.4873 68.9542 39.6995 69.078 40.8974C71.3228 46.8074 73.5262 52.7588 76.2774 58.4365C78.3936 62.8002 81.2972 66.7821 83.8499 70.9342ZM67.2111 86.5197L67.5064 85.5079C64.9282 84.7093 62.3533 83.9043 59.7719 83.1153C51.982 80.737 44.2126 78.2839 36.3703 76.0965C35.4146 75.8292 34.0588 77.0016 32.8888 77.5075C33.7635 78.505 34.4986 80.1802 35.5352 80.3949C46.0653 82.5744 56.6461 84.5136 67.2127 86.5197H67.2111ZM38.2197 66.7248L71.2831 80.2788L71.7704 79.1143C62.0834 74.0411 52.3757 69.0092 42.7251 63.8692C40.1581 62.5027 38.6785 62.8065 38.2197 66.7248ZM35.3622 72.735L69.7241 83.4C69.8114 82.3692 69.7098 82.0653 69.5162 81.9858C59.6275 77.9212 49.7182 73.9059 39.8406 69.8142C36.4338 68.4031 35.8765 68.7356 35.3622 72.7334V72.735ZM30.0471 97.4854C29.9773 97.557 29.9344 97.6492 29.9217 97.7479C30.5996 100.315 34.4112 101.706 38.6436 101.326C45.1604 100.739 51.7026 100.444 58.2241 99.9146C60.2688 99.7491 62.285 99.2242 64.3138 98.8646L64.1265 97.4854H30.0487H30.0471ZM66.1363 73.3284L66.3856 72.9991C59.5338 67.9847 52.7329 62.8972 45.8017 57.9958C43.2728 56.2077 42.2822 57.8256 41.8678 60.5014L66.1363 73.3284ZM30.2249 90.8388C29.2454 94.3498 31.0981 95.3107 33.9334 95.247C38.1007 95.1516 42.2647 94.8716 46.432 94.7841C50.3865 94.7014 54.3458 94.7666 58.3019 94.7666L58.3622 94.5566L30.2249 90.8388ZM31.6553 111.682L52.1375 106.965H30.371L31.6553 111.682ZM97.936 88.8598C95.8992 82.786 94.2434 77.6762 92.4225 72.6268C91.8796 71.9682 91.1859 71.4496 90.4 71.1171C89.9936 71.8569 89.7777 72.6889 89.7746 73.5336C91.6113 78.2202 93.5989 82.848 95.6246 87.4567C96.304 88.0612 97.0867 88.5369 97.9376 88.8582L97.936 88.8598ZM67.962 58.0626L68.5573 57.8495C66.503 53.5256 64.471 49.1921 62.3866 44.8841C61.0324 42.0858 59.3735 42.4469 57.1351 44.795L67.962 58.0626ZM69.2653 63.252L69.5828 62.8988C65.6648 58.2297 61.7754 53.5367 57.8113 48.9057C56.6921 47.5997 55.4062 45.8752 53.7139 48.6273L69.2669 63.252H69.2653ZM42.5362 104.482C42.4743 104.122 42.3647 103.772 42.2123 103.44C38.4642 103.211 34.7129 103.014 30.9631 102.813L30.9425 104.118C34.6843 106.534 38.596 103.44 42.5362 104.482ZM74.8201 100.473L74.8725 101.879L89.4729 100.77L89.4523 99.8048L74.8201 100.475V100.473ZM69.4733 91.884L77.2633 92.8258C70.8402 89.8716 70.7735 89.8668 69.4733 91.8824V91.884ZM68.9304 104.77L68.9621 105.085H78.5619L78.5238 104.272L68.9304 104.77Z" fill="#006E65"/>
</g>
<defs>
<clipPath id="clip0_10_422">
<rect width="102" height="119" fill="white"/>
</clipPath>
</defs>
</svg>
