<svg width="137" height="197" viewBox="0 0 137 197" fill="none" xmlns="http://www.w3.org/2000/svg">
<g clip-path="url(#clip0_10_424)">
<path d="M110.117 189.15C109.808 189.442 109.444 189.674 109.049 189.833C101.545 190.627 93.978 190.609 86.4794 189.782C77.4163 188.953 68.2772 190.012 59.6495 192.896C55.6496 194.388 51.5408 195.598 47.4751 196.922C46.7586 197.118 45.9916 196.95 45.427 196.468C44.8625 195.986 44.5739 195.258 44.6574 194.524C44.9435 194.56 45.2169 194.665 45.4523 194.829C45.8245 195.374 46.4017 195.744 47.0523 195.855C47.7029 195.969 48.3713 195.815 48.9054 195.429C53.9914 193.766 59.0242 191.842 64.2267 190.67C69.4139 189.5 74.7784 189.117 80.2922 188.355C80.0213 186.646 79.7175 184.524 79.3378 182.413C78.1277 175.682 76.8872 168.954 75.6594 162.225C74.4315 155.494 73.11 148.778 72.0063 142.03C70.8974 135.233 69.8569 128.419 69.062 121.582C67.9329 111.876 67.1456 102.133 66.0342 92.4269C65.5583 88.2673 64.5887 84.1631 63.9381 80.0186C63.571 77.6741 63.3178 75.3043 63.1609 72.9371C62.9988 71.364 61.6698 70.1691 60.0824 70.1666C59.9862 70.6733 59.9457 71.1876 59.9559 71.7019C60.7558 77.369 61.6115 83.0286 62.4014 88.6983C62.7989 91.5571 63.0621 94.4361 63.4292 97.2999C64.4798 105.511 65.6064 113.714 66.6013 121.933C67.6823 130.842 68.6013 139.771 69.6772 148.683C70.8063 158.036 72.0316 167.376 73.2341 176.719C73.6923 180.283 74.2037 183.84 74.6872 187.4C74.7353 187.639 74.7505 187.887 74.7379 188.129C74.6341 188.3 74.4974 188.451 74.3353 188.57C74.1227 188.313 73.9505 188.023 73.824 187.713C73.467 185.923 73.1607 184.125 72.8214 182.33C72.8063 180.649 71.4417 179.29 69.7532 179.275C66.6697 178.617 63.4773 178.667 60.4166 179.424C57.6141 180.177 54.7534 180.697 51.8649 180.977C47.6118 181.539 43.4954 182.875 39.7259 184.919C39.5512 185 39.374 185.071 39.1892 185.126L38.7968 184.839C38.9841 184.41 39.2727 184.035 39.6372 183.74C42.979 182.398 46.3941 181.246 49.8674 180.286C54.2471 179.247 58.7407 178.677 63.1963 177.951C66.3203 177.634 69.4747 177.951 72.4696 178.887C72.3531 177.435 72.2974 176.008 72.1177 174.596C70.9557 165.551 69.7253 156.515 68.5987 147.468C67.6114 139.534 66.7633 131.58 65.7912 123.644C64.8849 116.253 63.8849 108.871 62.9507 101.482C62.2546 95.9739 61.6368 90.4529 60.9103 84.9496C60.4293 81.3043 59.8268 77.6741 59.2495 74.0413C59.0597 72.8388 58.8166 71.6439 58.5103 70.4666C58.3863 70.1187 58.1027 69.8489 57.7483 69.7456C54.2066 69.0246 50.556 69.0069 47.0067 69.6951C41.2068 70.7892 35.7158 73.1212 30.9083 76.5295C30.4627 76.7312 29.9539 76.7262 29.5134 76.5169C25.197 74.3514 20.4882 73.0607 15.6655 72.7254C12.22 72.6472 8.77705 73.0405 5.43788 73.8951C3.91385 74.3867 2.43034 74.9968 1.00505 75.7228C0.184808 74.6388 -0.154426 73.2699 0.0658226 71.9313C0.564548 68.2683 1.05821 64.6027 1.72402 60.9675C3.01514 55.2373 5.02016 49.6886 7.691 44.4525C9.22768 41.0794 11.0783 37.8576 13.22 34.8299C15.1592 31.6635 17.5997 28.8299 20.4528 26.4451C23.03 24.5644 25.3768 22.3661 27.9691 20.5082C29.8121 19.2905 31.7311 18.1863 33.7108 17.2006C36.7614 15.8267 39.6929 14.2107 42.4828 12.3704C44.8928 10.2704 47.0219 7.86794 48.8168 5.22594C49.1788 4.17721 49.3105 3.06042 49.1966 1.95875C49.3105 0.998249 49.4877 -0.0530021 50.7611 0.00498062C51.8902 0.257079 52.6244 1.34615 52.4269 2.48059C52.4117 3.0705 52.6117 3.64276 52.9864 4.09654C56.1104 7.99147 60.4521 10.7343 65.3228 11.8839C69.6671 12.8242 73.8543 14.4805 78.1302 15.7586C82.277 16.999 86.5503 17.8989 90.5806 19.4367C94.1907 20.8082 97.6463 22.5527 100.892 24.6426C107.406 29.2913 112.947 35.1576 117.208 41.9214C119.375 45.3979 121.337 48.9953 123.081 52.7012C123.14 52.9785 123.036 53.2684 122.815 53.4474C122.395 53.0289 122.01 52.5751 121.671 52.0886C119.861 48.9726 118.183 45.7785 116.286 42.7155C113.952 38.9063 111.104 35.4299 107.826 32.3896C105.755 30.4812 103.894 28.3434 101.775 26.4955C99.383 24.6149 96.659 23.1955 93.7451 22.3132C92.3882 21.8216 91.1882 20.8762 89.8211 20.43C85.5377 19.0359 81.2112 17.7704 76.8923 16.4796C74.229 15.683 71.5582 14.9217 68.8848 14.1628C63.333 13.0234 58.1255 10.6108 53.6775 7.10912C54.2977 8.18558 54.8749 9.28725 55.5458 10.3309C56.2319 11.5158 57.0268 12.6351 57.9205 13.6738C59.128 14.8914 60.4166 16.0233 61.7811 17.0645C66.1811 20.5762 70.6215 24.0375 75.0239 27.5468C77.3935 29.3014 79.6669 31.182 81.8289 33.1837C86.1199 37.187 89.7072 41.876 92.4489 47.0592C92.8515 47.8785 93.4515 48.6046 93.8312 49.4314C95.3502 52.7415 96.8185 56.0742 98.2995 59.402C98.459 59.7625 98.5931 60.133 98.7678 60.5767C101.15 59.3364 103.383 58.0255 105.735 56.9768C110.747 54.6348 116.312 53.7272 121.813 54.3524C122.479 54.2995 123.132 54.123 123.734 53.8356L123.815 53.2633C124.281 53.5936 124.689 53.997 125.028 54.4558C125.223 54.907 125.215 55.4188 125.01 55.865C124.653 56.0944 124.213 56.16 123.803 56.049C117.441 54.7406 110.823 55.6003 105.011 58.4894C103.684 59.1246 102.363 59.7725 101.066 60.4608C100.573 60.7204 100.127 61.0582 99.7475 61.4641C98.8412 62.4599 98.0514 63.5641 97.0995 64.507C96.6919 64.8473 96.1501 64.9733 95.6337 64.8473C91.9958 63.3549 88.0313 62.833 84.1276 63.3322C81.1479 63.5414 78.1935 64.0154 75.2999 64.754C72.386 65.7649 69.5456 66.9725 66.7937 68.3691C65.8216 68.4926 64.9634 69.0649 64.4798 69.917C63.9963 70.7691 63.9457 71.7951 64.3431 72.6901C64.8621 76.701 65.5482 80.6917 66.0241 84.7076C66.6545 90.0345 67.1355 95.3764 67.7101 100.711C68.5886 108.861 69.4291 117.019 70.4114 125.157C70.9329 129.478 71.6518 133.776 72.3987 138.067C73.4037 143.847 74.5961 149.598 75.5708 155.383C76.4872 160.824 77.1505 166.307 78.0644 171.747C78.6593 175.292 79.5175 178.793 80.2289 182.32C80.558 183.956 80.8162 185.608 81.12 187.249C81.1732 187.735 81.4213 188.179 81.8036 188.484C82.1858 188.789 82.677 188.928 83.1656 188.872C86.1098 188.968 89.0541 189.142 91.9958 189.316C96.2539 189.787 100.55 189.76 104.801 189.235C106.446 188.948 108.13 188.89 109.795 188.729L110.122 189.147L110.117 189.15ZM67.9886 49.3054L70.4822 48.4331C70.2595 47.1852 70.0823 45.9348 69.7911 44.7147C69.6721 44.3542 69.3835 44.0794 69.0164 43.976C67.2114 44.0718 65.4089 44.2685 63.4874 44.4424C63.8292 45.897 64.1684 47.1071 64.3836 48.3373C64.3659 48.6424 64.5051 48.9373 64.7558 49.1138C65.0064 49.2903 65.3304 49.3281 65.614 49.2121C66.4013 49.1718 67.1886 49.2071 67.9684 49.3205L65.0089 50.1777C65.4342 53.2785 67.1844 54.6692 70.2595 54.3499C70.3607 54.3398 70.4645 54.3575 70.5658 54.3549C71.2392 54.3499 71.9126 54.3474 72.5885 54.3423L72.6088 54.8087L66.3254 55.8171L67.5583 60.7154L79.4846 59.6339L79.5479 60.3019C76.9935 60.549 74.424 60.6902 71.8923 61.0734C69.3557 61.4566 66.857 62.0818 64.2343 62.6238L65.0418 65.1927L64.614 65.3464C63.6748 63.8943 62.971 62.3036 62.5305 60.6347C61.8799 56.4171 60.2926 52.3936 59.7989 48.1155C59.4546 45.718 58.9888 43.3382 58.4065 40.9861C58.2192 40.545 57.9584 40.1391 57.6344 39.7862L57.0445 40.0735C57.9534 44.9819 58.3458 49.9482 59.728 54.8163C61.0799 59.5784 61.7913 64.5221 62.7128 69.0422C66.0975 67.1792 69.6063 65.5506 73.2189 64.1666C76.991 63.1834 80.8314 62.4977 84.7124 62.1171C88.2136 61.7616 91.7527 62.1347 95.0995 63.2162C95.778 63.2918 96.4514 63.0549 96.9324 62.5759C97.4134 62.0944 97.6463 61.4238 97.5704 60.7482C96.74 58.144 95.7501 55.5927 94.6084 53.1096C93.373 50.5785 91.6768 48.2743 90.3502 45.7811C87.7427 40.9987 84.2769 36.7307 80.1251 33.1913C78.4112 31.6887 76.6264 30.2644 74.8467 28.84C70.4873 25.351 66.1178 21.8745 61.7381 18.4082C60.3533 17.5107 59.0571 16.4872 57.8622 15.3502C56.1914 13.4065 54.8319 11.1956 53.2623 8.98726C53.4345 9.47885 53.5686 9.98305 53.6674 10.4923C53.9534 13.0536 54.1939 15.62 54.4825 18.1813C54.5686 18.5746 54.7003 18.9578 54.8699 19.3233L55.7813 18.5443L58.4546 20.0821C56.642 19.8351 56.6445 20.7653 56.7129 21.6527C56.8015 22.8023 56.9838 23.9468 57.1382 25.2048L59.9305 25.2804C59.8217 25.8627 59.7761 26.4527 59.7913 27.0451C59.9508 28.2451 60.3432 29.4199 60.4267 30.6198C60.3812 31.182 60.609 31.7341 61.0343 32.1047C61.4596 32.4753 62.0368 32.6265 62.5938 32.5081C63.2571 32.5534 63.9153 32.6568 64.5608 32.8181L64.4672 33.1711H60.9736L62.1178 38.2055L68.2544 37.6761L68.6367 35.6013L69.057 35.5685C69.1481 36.2139 69.3785 36.8341 69.7329 37.3837C70.3734 37.6912 71.0721 37.8601 71.7835 37.8778C70.9076 38.5483 69.1304 37.9231 69.6266 39.5643C70.0595 40.9962 69.1608 43.197 71.7202 43.7012L70.4038 43.8954L71.3784 50.0567C70.143 49.7819 69.0646 49.5424 67.9861 49.3054H67.9886ZM5.31383 52.8902C4.44802 55.8625 3.53918 58.8246 2.7316 61.812C2.27591 63.4053 1.94174 65.0313 1.73415 66.675C1.09872 69.0977 1.02277 71.6287 1.50883 74.0842C5.87584 72.2489 10.5897 71.3766 15.3263 71.5254C20.1313 71.7044 24.8426 72.8993 29.1488 75.027C29.1185 72.2791 28.9944 69.8187 29.083 67.3657C29.0045 64.0179 29.245 60.67 29.7969 57.3675C31.0627 51.9146 33.1538 46.6558 34.4956 41.2181C36.1183 35.9492 38.1461 30.8089 40.5562 25.8476C42.1511 22.0157 44.1739 18.3603 45.9055 14.5813C46.6903 12.8696 47.2295 11.0469 47.8801 9.27465L47.4371 8.93684C44.1081 13.0561 39.6904 16.167 34.6829 17.9191L38.0322 19.6233L37.9259 20.0544C35.9588 19.7821 33.7184 18.4914 32.4779 21.3502L34.8956 22.114L34.8247 22.5703C33.5766 22.2527 32.283 22.1695 31.0045 22.3258C29.7741 22.9611 28.6577 23.793 27.6957 24.7888L28.5843 26.0669C27.3767 25.956 26.1717 26.2913 25.197 27.0098C24.2249 27.7283 23.5515 28.7795 23.3084 29.9619L25.9084 31.0635L25.6729 31.5778C25.2831 31.4014 24.878 31.2627 24.4603 31.1593C23.7312 30.8719 22.9312 30.8089 22.1642 30.9753C20.6908 32.1375 19.549 33.6652 18.8579 35.4047L21.6097 36.3979C20.4579 36.3702 19.311 36.5316 18.2098 36.8719C17.4225 37.7794 16.8377 38.8408 16.4934 39.9904C16.4706 40.0357 16.4529 40.0836 16.4326 40.129C15.9643 41.1727 16.2807 41.7197 17.4326 41.9466C18.8351 42.2214 20.2123 42.6298 21.6021 42.9828C20.4528 42.8895 19.387 43.5928 19.025 44.6844L18.7997 43.3029C18.4402 43.0584 18.0402 42.8819 17.6149 42.7836C16.8326 42.6097 16.0149 42.6979 15.2883 43.0332C14.5415 44.3718 13.9187 45.776 13.4251 47.2256C14.6225 47.5281 15.5516 47.7474 16.4731 47.9945C17.5617 48.2869 18.0326 47.9264 18.1541 46.7693C18.3364 46.076 18.6275 45.4155 19.0123 44.813C19.025 45.2693 18.9971 45.7281 18.9262 46.1794C18.344 48.6298 17.7085 51.0676 17.1212 53.5154C16.8832 54.5037 16.7136 55.3658 18.2604 55.5474C19.7515 55.8171 21.2249 56.1877 22.6654 56.6566L22.5616 57.1558L16.6301 56.0667C16.3592 57.5894 16.1997 58.8902 15.8807 60.1532C15.6149 60.6297 15.6478 61.2196 15.9668 61.6633C16.2858 62.107 16.8301 62.3313 17.3718 62.2406C18.5718 62.4322 19.7566 62.7044 20.9211 63.0549L20.83 63.4154L15.5795 62.9414C15.6428 64.4918 15.7314 65.9439 15.7364 67.3935C15.6503 67.7489 15.4959 68.0817 15.2757 68.3767C15.02 68.1347 14.82 67.8372 14.6959 67.5094C14.6326 66.5968 14.6276 65.6817 14.6807 64.7691C14.7719 62.6843 14.7871 62.6767 12.6707 62.5002C10.5289 62.3238 8.38466 62.2078 6.25052 61.9734C5.83281 61.7918 5.46319 61.5196 5.17206 61.1717C5.54673 61.0129 5.93154 60.8742 6.3214 60.7532C6.51634 60.7532 6.70874 60.7835 6.89608 60.844C9.51881 61.0835 12.1416 61.3204 15.0099 61.5801C15.1364 60.186 15.1896 58.9179 15.3795 57.6726C15.6681 55.7818 15.7086 55.7869 13.7871 55.5574C11.5188 55.2869 10.199 56.3037 9.82767 58.6078C9.73653 59.165 9.57198 59.712 9.44287 60.2641L8.91629 60.1482C8.93148 59.6137 8.98465 59.0818 9.07072 58.5549C9.96184 54.7835 10.2403 54.6902 6.31381 54.2919C5.94673 54.3499 5.57965 54.1986 5.36193 53.8986C5.14421 53.5986 5.11889 53.2028 5.29104 52.8751C6.42773 53.1524 7.56189 53.4423 8.70111 53.7045C9.08085 53.8759 9.51881 53.8507 9.8783 53.639C10.2353 53.4272 10.4656 53.0541 10.496 52.6407C10.739 51.5037 11.0732 50.3869 11.4935 49.3029C11.82 48.481 11.6884 48.0953 10.8175 47.876C9.96184 47.6567 9.14667 47.2735 8.28592 47.0794C7.94163 47.0869 7.62518 47.2684 7.44543 47.5609C6.69102 49.3256 6.01002 51.118 5.3037 52.9003L5.31383 52.8902ZM30.1589 75.1203C40.1183 69.7733 50.0776 66.0221 61.4571 69.2842C61.4951 68.9893 61.5052 68.6893 61.4824 68.3918C60.647 64.3834 59.7204 60.3927 58.966 56.3692C57.68 49.5121 56.518 42.6323 55.2547 35.7702C55.0066 34.8627 54.68 33.9778 54.2851 33.1232C54.5712 32.3946 54.7737 31.6358 54.8876 30.8593C54.8825 29.8988 54.7863 28.9409 54.6015 27.9955C53.9129 22.3888 53.2851 16.7721 52.4927 11.1805C52.1813 8.98221 51.4877 6.83938 50.9687 4.67133C49.9004 6.26459 49.0877 8.01416 48.5637 9.857C47.6624 13.3385 46.27 16.6737 44.4321 19.767C43.4397 21.7485 42.5587 23.7854 41.7891 25.8653C40.3638 29.1501 38.9259 32.4299 37.4753 35.7072C37.0778 36.466 36.7208 37.245 36.4044 38.0416C35.4196 41.1172 34.4703 44.2029 33.5563 47.2987C32.3538 50.6718 31.4146 54.128 30.7488 57.6448C30.1969 61.9557 30.4273 66.3649 30.3134 70.7313C30.2729 72.1783 30.2121 73.6254 30.1589 75.1203ZM69.4823 43.2097C69.1709 42.0676 68.943 40.9055 68.8013 39.7307C68.8367 39.3475 68.6848 38.9694 68.3937 38.7147C68.1 38.4626 67.7026 38.3643 67.3279 38.4551C65.7254 38.5433 64.133 38.7652 62.3482 38.9542C62.6394 40.4139 62.8773 41.7349 63.1862 43.0407C63.29 43.3181 63.5254 43.5273 63.814 43.5954C65.6545 43.5096 67.4924 43.3533 69.4823 43.2097ZM17.2908 49.0004C16.0706 48.8012 14.9744 48.5819 13.8706 48.4684C13.4884 48.4331 13.1086 48.5718 12.8453 48.8516C11.8833 50.4398 11.3289 52.2424 11.2276 54.0928L15.982 55.0104C16.4073 53.3239 16.7997 51.8138 17.1642 50.2961C17.2326 49.8651 17.2731 49.4314 17.2908 48.9978V49.0004ZM12.4555 46.9256C12.9289 45.9399 13.3517 44.929 13.7162 43.8979C13.9516 43.3281 13.939 42.6878 13.6833 42.1282C12.5567 41.6214 11.2504 41.7197 10.215 42.3929C9.52894 43.6407 8.86819 44.9038 8.23023 46.0987L12.4555 46.9256ZM11.5365 40.1593L11.62 40.7618C12.6757 40.9887 13.7719 40.9282 14.7972 40.5903C15.7719 39.3198 16.5643 37.9231 17.1541 36.4358C15.7668 35.8458 14.625 35.3114 13.7744 36.4131C12.9491 37.6131 12.2023 38.8635 11.5365 40.1593ZM65.5558 55.9558C63.3904 56.386 62.5896 57.6062 63.1533 59.6162C63.5803 61.1372 64.8115 61.5263 66.8469 60.7835L65.5532 55.9558H65.5558ZM62.2141 55.5524L65.3279 54.9499C64.9634 53.4474 64.6899 52.1213 64.29 50.8382C64.09 50.4953 63.7254 50.276 63.328 50.2583C62.5811 50.3945 61.8495 50.5911 61.1356 50.8457L62.2166 55.5524H62.2141ZM62.814 44.6012L60.0647 45.4332L60.9609 49.7718L63.9836 49.3029L62.814 44.5987V44.6012ZM17.4326 35.0391L20.6351 30.7837L18.7237 29.3014L15.1086 34.4568L17.4326 35.0366V35.0391ZM62.647 43.5777C62.3786 42.4811 62.0723 41.4803 61.9001 40.4567C61.6849 39.1811 60.9457 39.1181 59.9179 39.408C58.3179 39.8618 59.2141 40.971 59.3584 41.75C59.8343 44.3113 59.885 44.3012 62.647 43.5777ZM58.7863 38.5282L61.2976 38.1374C61.0065 37.0559 60.771 35.9593 60.5964 34.8501C60.4141 33.161 59.5204 32.9694 58.0394 33.4786L58.7863 38.5257V38.5282ZM57.1838 26.1804L57.8926 32.5711L59.809 32.1778C58.9609 26.677 58.7306 26.1325 57.1838 26.1804ZM19.5389 28.5753C20.6148 29.0543 21.8553 28.9812 22.8654 28.3812C23.878 27.7812 24.5337 26.73 24.6249 25.5602C22.0958 25.1518 21.3743 27.5543 19.5389 28.5728V28.5753ZM57.7179 38.8458L58.0268 38.4677C57.8546 37.0811 57.7154 35.6895 57.4876 34.3131C57.3382 34.0156 57.123 33.756 56.8597 33.5543C56.5914 33.7761 56.3863 34.0635 56.2673 34.3912C56.4192 35.6316 56.6471 36.8618 56.9458 38.0744C57.1407 38.387 57.404 38.6517 57.7205 38.8458H57.7179ZM55.2167 25.293L55.9205 25.4241C56.08 24.8846 56.1812 24.3275 56.2243 23.7653C56.1964 23.0115 56.0825 22.2628 55.8825 21.5342C55.7205 21.1787 55.5028 20.851 55.2344 20.5636C54.9509 20.8561 54.7458 21.214 54.637 21.6073C54.7509 22.8426 55.0117 24.0653 55.2167 25.293ZM56.1256 32.4072L56.6192 32.5787C56.8572 32.2282 57.0192 31.8324 57.0926 31.4165C56.9888 30.0652 56.7838 28.719 56.561 27.3829C56.4344 27.1535 56.2521 26.9543 56.0319 26.8081C55.8496 27.0047 55.718 27.2417 55.6471 27.4989C55.7737 29.1375 55.9585 30.7736 56.1256 32.4097V32.4072ZM29.4602 22.0384C27.5666 22.0964 25.8274 23.1023 24.8401 24.7132C27.0096 24.5569 27.797 22.709 29.4602 22.0384Z" fill="#1B3F71"/>
<path d="M136.889 175.738C134.841 175.554 132.787 175.41 130.744 175.176C125.633 174.583 120.534 173.867 115.418 173.351C110.499 172.869 105.532 173.189 100.717 174.301C95.3704 175.514 90.1047 177.087 84.7757 178.387C83.2111 178.665 81.6289 178.831 80.039 178.887L79.9327 178.322C80.4441 178.133 80.9783 178.012 81.5226 177.964C84.7048 177.719 87.8389 177.041 90.8363 175.952C95.2919 174.954 99.7323 173.872 104.206 172.957C108.152 172.156 112.203 171.989 116.203 172.466C119.183 172.814 122.14 173.353 125.119 173.714C128.605 174.137 132.104 174.447 135.595 174.843C136.079 174.949 136.552 175.105 137.003 175.312L136.891 175.74L136.889 175.738Z" fill="#1B3F71"/>
<path d="M15.2681 70.0355C12.7593 69.8086 10.253 69.5742 7.74417 69.3599C6.99481 69.3599 6.24546 69.3145 5.50117 69.2263C5.08346 69.0422 4.70372 68.7775 4.38474 68.4523C4.71637 68.1826 5.1113 68.0011 5.53155 67.9204C8.79984 68.4826 12.0555 69.1229 15.3136 69.7406L15.2681 70.0355Z" fill="#1B3F71"/>
<path d="M73.6468 54.113L77.3176 53.5962C76.9834 52.25 76.7024 50.934 76.3075 49.6559C76.0999 49.3458 75.7733 49.1315 75.4037 49.0685C74.948 48.9777 74.4872 48.9298 74.024 48.9223C74.6594 48.6929 75.2189 48.2895 75.6341 47.7601C75.591 46.7593 75.3834 45.7736 75.0189 44.8383C74.8341 44.1173 74.6898 44.0543 72.5556 43.5904C73.1784 43.4316 73.7531 43.1265 74.2341 42.7055C74.3961 42.0854 74.4138 41.44 74.2872 40.8123L74.8923 40.719C75.1581 41.7249 75.4417 42.7257 75.6872 43.7366C76.4416 46.8223 77.1226 49.9282 77.9733 52.9886C78.3631 53.6189 78.5884 54.3374 78.6315 55.0785C78.5226 55.8575 78.8897 56.6995 78.8467 57.5491C78.5176 56.4676 77.9378 55.4794 77.1505 54.6626C76.0138 54.3752 74.8265 54.3449 73.6771 54.5718L73.6468 54.113Z" fill="#1B3F71"/>
</g>
<defs>
<clipPath id="clip0_10_424">
<rect width="137" height="197" fill="white"/>
</clipPath>
</defs>
</svg>
